<svg id="noposter" xmlns="http://www.w3.org/2000/svg" width="250" height="360" viewBox="0 0 250 360">
  <rect id="Прямоугольник_3" data-name="Прямоугольник 3" width="250" height="360" fill="none"/>
  <path id="Контур_10" data-name="Контур 10" d="M-79.776,0V-22.416h25.632V0h-10.9V-13.968h-3.84V0Zm53.424-19.248a10.981,10.981,0,0,1,3.216,8.016,11.144,11.144,0,0,1-3.216,8.064Q-30.048.624-36.816.624T-47.28-3.168a11.144,11.144,0,0,1-3.22-8.064,10.981,10.981,0,0,1,3.216-8.016q3.7-3.792,10.464-3.792t10.468,3.792ZM-34.7-13.632a2.854,2.854,0,0,0-2.112-.768,2.854,2.854,0,0,0-2.112.768,3.064,3.064,0,0,0-.96,2.4,3.124,3.124,0,0,0,.96,2.448,2.854,2.854,0,0,0,2.112.768A2.854,2.854,0,0,0-34.7-8.784a3.124,3.124,0,0,0,.96-2.448A3.064,3.064,0,0,0-34.7-13.632Zm32.88,3.84L-2.256-.528A12.224,12.224,0,0,1-7.776.624q-6.048,0-9.456-3.312A10.918,10.918,0,0,1-20.448-10.9a12.082,12.082,0,0,1,3.456-8.928A11.74,11.74,0,0,1-8.3-23.04a17.9,17.9,0,0,1,6.336,1.152v9.12a6.06,6.06,0,0,0-4.08-1.776,3.244,3.244,0,0,0-2.4.864,3.4,3.4,0,0,0-.912,2.352,3.183,3.183,0,0,0,.912,2.352,3.142,3.142,0,0,0,2.3.96,6.2,6.2,0,0,0,4.32-1.776ZM5.664,0V-13.968l-5.04.192v-8.64H21.6v8.64l-5.04-.192V0Zm44.5-9.408H34.272a4.5,4.5,0,0,0,.816,3.264,2.02,2.02,0,0,0,1.632.624,2.424,2.424,0,0,0,1.632-.624,2.874,2.874,0,0,0,.72-1.3H49.728A10.749,10.749,0,0,1,47.472-3.6a12.441,12.441,0,0,1-4.2,3.144A14.737,14.737,0,0,1,37.2.624q-6.912,0-10.608-3.7A10.629,10.629,0,0,1,23.424-10.9a11.456,11.456,0,0,1,3.36-8.448,13.694,13.694,0,0,1,9.984-3.7A13.239,13.239,0,0,1,46.416-19.5a11.63,11.63,0,0,1,2.76,4.056,12.392,12.392,0,0,1,.984,4.776Zm-15.8-4.656H39.5a3.27,3.27,0,0,0-.96-2.256,2.335,2.335,0,0,0-1.728-.624,2.356,2.356,0,0,0-1.584.576,2.923,2.923,0,0,0-.86,2.3ZM64.752,10.992H53.808V-22.416H64.224v1.248a5.682,5.682,0,0,1-.288,1.968l-.048.144.336.1a9.72,9.72,0,0,1,2.3-2.64,7.654,7.654,0,0,1,4.56-1.44A8.658,8.658,0,0,1,77.472-20.5q3.264,3.264,3.264,9.168a13.042,13.042,0,0,1-3.5,9.264A7.948,7.948,0,0,1,71.28.624a7.706,7.706,0,0,1-4.416-1.3,7.422,7.422,0,0,1-2.3-2.4h-.336A17.942,17.942,0,0,1,64.752,1.3Zm-.528-22.08a3.634,3.634,0,0,0,.96,2.688,2.435,2.435,0,0,0,1.872.72,2.7,2.7,0,0,0,1.92-.72,3.463,3.463,0,0,0,1.1-2.688,3.582,3.582,0,0,0-1.056-2.64A2.739,2.739,0,0,0,67-14.544a2.616,2.616,0,0,0-1.776.672,3.664,3.664,0,0,0-1,2.784Z" transform="translate(125 189)" fill="#707070"/>
  <path id="Контур_11" data-name="Контур 11" d="M-66.36-11.228a6.406,6.406,0,0,1,1.876,4.676,6.5,6.5,0,0,1-1.876,4.7A8.134,8.134,0,0,1-72.46.36a8.134,8.134,0,0,1-6.1-2.212,6.5,6.5,0,0,1-1.876-4.7,6.406,6.406,0,0,1,1.876-4.676,8.134,8.134,0,0,1,6.1-2.212,8.134,8.134,0,0,1,6.1,2.212Zm-4.872,3.276A1.665,1.665,0,0,0-72.464-8.4a1.665,1.665,0,0,0-1.232.448,1.787,1.787,0,0,0-.56,1.4,1.822,1.822,0,0,0,.56,1.428,1.665,1.665,0,0,0,1.232.448,1.665,1.665,0,0,0,1.232-.448,1.822,1.822,0,0,0,.56-1.428,1.787,1.787,0,0,0-.56-1.4ZM-59.36,0V-8.148l-2.94.112v-5.04h12.236v5.04L-53-8.148V0Zm21.224-5.712-.252,5.4a7.13,7.13,0,0,1-3.22.672,7.581,7.581,0,0,1-5.516-1.932A6.369,6.369,0,0,1-49-6.356a7.048,7.048,0,0,1,2.016-5.208,6.848,6.848,0,0,1,5.068-1.876,10.443,10.443,0,0,1,3.7.672v5.32A3.535,3.535,0,0,0-40.6-8.484a1.892,1.892,0,0,0-1.4.5,1.981,1.981,0,0,0-.532,1.372A1.857,1.857,0,0,0-42-5.236a1.833,1.833,0,0,0,1.344.56,3.618,3.618,0,0,0,2.52-1.036ZM-32-1.316l-5.628-11.76h6.86L-29.2-7.7a6.668,6.668,0,0,1,.28,1.708h.168a9.44,9.44,0,0,1,.28-1.792l1.512-5.292h6.72L-29.12,6.412h-6.748ZM-16.744,0V-8.148l-2.94.112v-5.04H-7.448v5.04l-2.94-.112V0ZM4.48-5.712l-.252,5.4A7.13,7.13,0,0,1,1.008.36,7.581,7.581,0,0,1-4.508-1.568,6.369,6.369,0,0,1-6.384-6.356a7.048,7.048,0,0,1,2.016-5.208A6.848,6.848,0,0,1,.7-13.44a10.443,10.443,0,0,1,3.7.672v5.32A3.535,3.535,0,0,0,2.02-8.484a1.892,1.892,0,0,0-1.4.5A1.981,1.981,0,0,0,.084-6.608,1.857,1.857,0,0,0,.616-5.236a1.833,1.833,0,0,0,1.344.56A3.618,3.618,0,0,0,4.48-5.712ZM8.848,0V-8.148l-2.94.112v-5.04H18.144v5.04L15.2-8.148V0Zm10.92-13.076h9.688a5.158,5.158,0,0,1,3.08.812A2.881,2.881,0,0,1,33.712-9.8a2.9,2.9,0,0,1-.84,2.184,3.481,3.481,0,0,1-1.484.84,3.571,3.571,0,0,1,2.156.98,2.951,2.951,0,0,1,.812,2.184,3.292,3.292,0,0,1-.9,2.436A4.846,4.846,0,0,1,29.82,0H19.768Zm6.076,5.32h.868a1.513,1.513,0,0,0,1.008-.308,1.155,1.155,0,0,0,.336-.9,1.042,1.042,0,0,0-.308-.812,1.581,1.581,0,0,0-1.064-.28h-.84Zm0,4.732h1.008a1.471,1.471,0,0,0,.924-.28.994.994,0,0,0,.364-.84,1.1,1.1,0,0,0-.336-.9,1.429,1.429,0,0,0-.98-.28h-.98ZM40.376-1.316l-5.628-11.76h6.86L43.176-7.7a6.668,6.668,0,0,1,.28,1.708h.168a9.44,9.44,0,0,1,.28-1.792l1.512-5.292h6.72L43.26,6.412H36.512ZM67.648-5.488H58.38a2.622,2.622,0,0,0,.476,1.9,1.178,1.178,0,0,0,.952.364,1.414,1.414,0,0,0,.952-.364,1.677,1.677,0,0,0,.42-.756H67.4A6.27,6.27,0,0,1,66.08-2.1,7.257,7.257,0,0,1,63.63-.266a8.6,8.6,0,0,1-3.542.63A8.375,8.375,0,0,1,53.9-1.792a6.2,6.2,0,0,1-1.848-4.564,6.682,6.682,0,0,1,1.96-4.928,7.988,7.988,0,0,1,5.824-2.156,7.723,7.723,0,0,1,5.628,2.072A6.784,6.784,0,0,1,67.074-9a7.229,7.229,0,0,1,.574,2.786ZM58.436-8.2h3a1.908,1.908,0,0,0-.56-1.316,1.362,1.362,0,0,0-1.008-.364,1.375,1.375,0,0,0-.924.336A1.7,1.7,0,0,0,58.436-8.2ZM71.652,0V-8.148l-2.94.112v-5.04H80.948v5.04l-2.94-.112V0Z" transform="translate(125 211)" fill="#707070"/>
  <rect id="Прямоугольник_2" data-name="Прямоугольник 2" width="45" height="45" rx="14" transform="translate(94 83)" fill="#757575"/>
  <path id="Контур_7" data-name="Контур 7" d="M15.461,13.217a7.762,7.762,0,0,1,13.512,0L36.994,27.4a7.762,7.762,0,0,1-6.756,11.585H14.2A7.762,7.762,0,0,1,7.44,27.4Z" transform="translate(136.491 72.675) rotate(30)" fill="#9a9a9a"/>
</svg>
