<?xml version="1.0" standalone="no"?>
<!DOCTYPE svg PUBLIC "-//W3C//DTD SVG 1.1//EN" "http://www.w3.org/Graphics/SVG/1.1/DTD/svg11.dtd" >
<svg xmlns="http://www.w3.org/2000/svg">
<metadata>Generated by IcoMoon</metadata>
<defs>
<font id="icomoon" horiz-adv-x="1024">
<font-face units-per-em="1024" ascent="960" descent="-64" />
<missing-glyph horiz-adv-x="1024" />
<glyph unicode="&#x20;" horiz-adv-x="512" d="" />
<glyph unicode="&#xe900;" glyph-name="twitter" d="M1022.804 765.703c-1.468 1.73-3.891 2.318-5.957 1.374-30.614-13.582-62.822-23.346-95.995-29.114 35.218 26.492 61.459 63.179 74.915 105.245 0.65 2.014-0.021 4.216-1.668 5.527-1.657 1.311-3.954 1.479-5.768 0.399-39.665-23.524-82.623-40.105-127.742-49.303-39.98 41.49-95.806 65.224-153.584 65.224-117.506 0-213.092-95.586-213.092-213.081 0-14.211 1.374-28.286 4.101-41.951-162.75 10.047-314.928 88.182-418.401 215.095-1.059 1.3-2.664 2.024-4.342 1.856-1.668-0.126-3.157-1.070-3.996-2.507-18.878-32.386-28.852-69.44-28.852-107.133 0-65.329 29.681-126.41 80.221-166.715-26.020 3.125-51.432 11.316-74.348 24.038-1.542 0.87-3.461 0.86-5.003-0.031-1.542-0.881-2.517-2.517-2.559-4.3l-0.021-2.727c0-93.824 61.826-176.206 149.787-203.558-23.168-3.734-47.206-3.482-70.835 1.028-1.741 0.325-3.566-0.273-4.761-1.615-1.185-1.342-1.584-3.22-1.038-4.919 26.377-82.329 99.666-140.065 184.974-147.26-71.16-52.135-155.272-79.603-244.146-79.603-16.371 0-32.858 0.975-49.010 2.874-2.307 0.262-4.594-1.112-5.391-3.325-0.797-2.234 0.052-4.73 2.045-5.999 96.173-61.679 207.376-94.265 321.599-94.265 373.629 0 596.894 303.497 596.894 596.904 0 8.17-0.157 16.298-0.482 24.405 40.305 29.481 74.904 65.57 102.802 107.343 1.248 1.867 1.112 4.352-0.346 6.093z" />
<glyph unicode="&#xe901;" glyph-name="tlgrm" d="M70.403 506.5q412.408 179.684 550.009 236.918c261.913 108.94 316.339 127.868 351.816 128.484 0.371 0.008 0.809 0.013 1.247 0.013 13.202 0 25.441-4.125 35.498-11.156l-0.201 0.133c7.302-6.369 12.236-15.29 13.405-25.36l0.017-0.185c1.258-7.685 1.977-16.543 1.977-25.569 0-4.067-0.146-8.101-0.433-12.095l0.031 0.536c-14.193-149.13-75.611-511.031-106.804-678.053-13.213-70.678-39.253-94.373-64.457-96.696-54.767-5.043-96.355 36.192-149.405 70.964-83.010 54.415-129.927 88.284-210.471 141.378-93.118 61.363-32.757 95.089 20.315 150.209 13.885 14.424 255.207 233.923 259.854 253.831 0.258 1.182 0.406 2.541 0.406 3.933 0 4.893-1.823 9.359-4.828 12.758l0.018-0.021c-3.296 2.119-7.32 3.378-11.638 3.378-2.841 0-5.554-0.545-8.042-1.536l0.147 0.052q-12.486-2.83-397.819-262.937-56.463-38.769-102.279-37.778c-33.671 0.727-98.447 19.038-146.608 34.695-59.062 19.203-106.012 29.344-101.916 61.958q3.193 25.512 70.161 52.147z" />
<glyph unicode="&#xe902;" glyph-name="pinterest" d="M535.998 960c-279.463 0-420.369-200.351-420.369-367.435 0-101.161 38.298-191.146 120.431-224.695 13.483-5.504 25.56-0.199 29.481 14.709 2.705 10.327 9.132 36.359 11.994 47.21 3.942 14.751 2.401 19.92-8.461 32.773-23.684 27.94-38.823 64.11-38.823 115.346 0 148.643 111.215 281.707 289.612 281.707 157.932 0 244.719-96.516 244.719-225.407 0-169.59-75.055-312.719-186.47-312.719-61.541 0-107.588 50.89-92.826 113.301 17.676 74.51 51.907 154.934 51.907 208.706 0 48.143-25.822 88.307-79.312 88.307-62.904 0-113.427-65.075-113.427-152.239 0-55.524 18.756-93.078 18.756-93.078s-64.383-272.743-75.643-320.508c-22.488-95.111-3.376-211.726-1.761-223.499 0.933-6.982 9.897-8.639 13.965-3.376 5.819 7.58 80.727 100.060 106.193 192.477 7.203 26.168 41.349 161.664 41.349 161.664 20.444-38.969 80.172-73.305 143.695-73.305 189.070 0 317.363 172.369 317.363 403.112 0.010 174.465-147.783 336.947-372.373 336.947z" />
<glyph unicode="&#xe903;" glyph-name="yandex" d="M849.582-64h-178.919v885.591h-79.895c-146.286 0-222.804-73.143-222.804-182.295 0-123.78 52.888-181.169 162.040-254.312l90.022-60.765-258.813-388.22h-192.422l232.932 346.585c-133.908 95.648-209.301 189.046-209.301 346.585 0 196.923 137.284 330.831 397.222 330.831h258.813v-1024z" />
<glyph unicode="&#xe904;" glyph-name="odnoklassniki" d="M201.429 410.411c-26.155-51.413 3.541-75.989 71.296-117.973 57.6-35.584 137.173-48.597 188.288-53.803-20.949-20.139 75.051 72.192-201.429-193.749-58.624-56.192 35.755-146.347 94.336-91.349l158.592 152.96c60.715-58.411 118.912-114.389 158.592-153.173 58.624-55.211 152.96 34.176 94.976 91.349-4.352 4.139-214.912 206.123-202.069 193.749 51.755 5.205 130.133 18.987 187.051 53.803l-0.043 0.043c67.755 42.197 97.451 66.731 71.68 118.144-15.573 29.184-57.557 53.589-113.451 11.392 0 0-75.477-57.813-197.205-57.813-121.771 0-197.205 57.813-197.205 57.813-55.851 42.411-98.005 17.792-113.408-11.392zM511.957 441.941c148.395 0 269.568 115.968 269.568 258.731 0 143.36-121.173 259.328-269.568 259.328-148.437 0-269.611-115.968-269.611-259.328 0-142.763 121.173-258.731 269.611-258.731zM511.957 828.629c72.917 0 132.395-57.216 132.395-127.957 0-70.144-59.477-127.36-132.395-127.36s-132.395 57.216-132.395 127.36c-0.043 70.784 59.435 127.957 132.395 127.957z" />
<glyph unicode="&#xe905;" glyph-name="mailru" horiz-adv-x="1025" d="M1025.249 446.751c0-176.078-82.42-258.498-186.068-258.498-0.046 0-0.1 0-0.154 0-59.647 0-112.028 31.11-141.802 77.99l-0.406 0.683c-46.656-47.458-111.541-76.868-183.296-76.868-141.923 0-256.974 115.051-256.974 256.974s115.051 256.974 256.974 256.974c141.923 0 256.974-115.051 256.974-256.974 0-0.099 0-0.198 0-0.297v0.015-83.668c-0.065-1.119-0.102-2.429-0.102-3.746 0-37.933 30.75-68.683 68.683-68.683 0.036 0 0.072 0 0.108 0h-0.006c46.205 0 83.668 38.712 83.668 156.098 0.004 0.645 0.006 1.407 0.006 2.171 0 227.416-184.357 411.773-411.773 411.773s-411.773-184.357-411.773-411.773c0-227.416 184.357-411.773 411.773-411.773 82.417 0 159.179 24.213 223.56 65.914l-1.608-0.976 67.434-77.424c-80.181-55.506-179.509-88.667-286.582-88.667-0.663 0-1.326 0.001-1.988 0.004h0.102c-282.232 0.711-510.75 229.668-510.75 511.998 0 282.77 229.23 512 512 512s512-229.23 512-512c0-0.439-0.001-0.877-0.002-1.315v0.068zM513.249 290.654c86.21 0 156.098 69.887 156.098 156.098s-69.887 156.098-156.098 156.098c-86.21 0-156.098-69.887-156.098-156.098v0c0-86.21 69.887-156.098 156.098-156.098v0z" />
<glyph unicode="&#xe906;" glyph-name="arrow-left" d="M273.673 490.667h579.66c23.564 0 42.667-19.103 42.667-42.667s-19.103-42.667-42.667-42.667h-579.66l138.353-138.353c16.662-16.662 16.662-43.677 0-60.34s-43.677-16.662-60.34 0l-181.019 181.019c-33.325 33.325-33.325 87.355 0 120.68l181.019 181.019c16.662 16.662 43.677 16.662 60.34 0s16.662-43.677 0-60.34l-138.353-138.353z" />
<glyph unicode="&#xe907;" glyph-name="facebook" d="M682.539 789.973h93.483v162.816c-16.128 2.219-71.595 7.211-136.192 7.211-134.784 0-227.115-84.779-227.115-240.597v-143.403h-148.736v-182.016h148.736v-457.984h182.357v457.941h142.72l22.656 182.016h-165.419v125.397c0.043 52.608 14.208 88.619 87.509 88.619z" />
<glyph unicode="&#xe908;" glyph-name="whatsapp" d="M851.58 788.988c-89.812 89.918-209.256 139.459-336.504 139.512-262.207 0-475.605-213.393-475.711-475.67-0.035-83.842 21.867-165.686 63.498-237.826l-67.488-246.504 252.182 66.152c69.486-37.904 147.715-57.879 227.326-57.902h0.199c262.178 0 475.6 213.41 475.699 475.699 0.053 127.113-49.383 246.627-139.201 336.539zM515.076 57.088h-0.164c-70.945 0.029-140.525 19.096-201.24 55.113l-14.432 8.572-149.648-39.258 39.943 145.904-9.404 14.959c-39.58 62.953-60.48 135.715-60.445 210.422 0.082 217.998 177.457 395.355 395.549 395.355 105.609-0.035 204.885-41.215 279.533-115.951s115.734-174.076 115.699-279.727c-0.094-218.016-177.457-395.391-395.391-395.391zM731.955 353.215c-11.883 5.953-70.324 34.699-81.223 38.672-10.887 3.967-18.82 5.941-26.736-5.953-7.928-11.895-30.703-38.672-37.641-46.6-6.937-7.934-13.863-8.93-25.752-2.977-11.889 5.947-50.186 18.504-95.59 58.998-35.332 31.518-59.186 70.441-66.123 82.336-6.926 11.906-0.059 17.719 5.215 24.258 12.867 15.979 25.752 32.73 29.713 40.658 3.967 7.934 1.98 14.877-0.996 20.824-2.965 5.947-26.736 64.453-36.639 88.26-9.656 23.168-19.447 20.039-26.748 20.402-6.926 0.346-14.854 0.416-22.781 0.416-7.922 0-20.801-2.971-31.699-14.877-10.893-11.9-41.596-40.652-41.596-99.158s42.592-115.025 48.533-122.959c5.941-7.934 83.818-127.992 203.051-179.473 28.359-12.258 50.496-19.564 67.764-25.043 28.477-9.047 54.381-7.77 74.865-4.711 22.84 3.416 70.318 28.758 80.232 56.52 9.902 27.768 9.902 51.562 6.926 56.525-2.965 4.957-10.893 7.928-22.775 13.881z" />
<glyph unicode="&#xe909;" glyph-name="vk" d="M849.707 404.139c-16.555 20.907-11.819 30.208 0 48.896 0.213 0.213 136.875 189.056 150.955 253.099l0.085 0.043c6.997 23.339 0 40.491-33.835 40.491h-111.957c-28.501 0-41.643-14.72-48.683-31.189 0 0-57.003-136.448-137.643-224.896-26.027-25.557-38.059-33.749-52.267-33.749-6.997 0-17.877 8.192-17.877 31.531v217.813c0 27.989-7.979 40.491-31.573 40.491h-176.043c-17.877 0-28.501-13.056-28.501-25.216 0-26.539 40.32-32.64 44.501-107.307v-162.005c0-35.499-6.443-42.027-20.736-42.027-38.059 0-130.432 137.003-185.173 293.803-11.051 30.421-21.845 42.709-50.56 42.709h-112c-31.957 0-38.4-14.72-38.4-31.189 0-29.099 38.059-173.781 176.981-364.928 92.587-130.475 222.976-201.173 341.589-201.173 71.296 0 80 15.701 80 42.709 0 124.672-6.443 136.448 29.269 136.448 16.555 0 45.056-8.192 111.616-71.125 76.075-74.624 88.576-108.032 131.157-108.032h111.957c31.915 0 48.085 15.701 38.784 46.677-21.291 65.152-165.163 199.168-171.648 208.128z" />
<glyph unicode="&#xe90d;" glyph-name="arrow-right" d="M752.471 488.523h-581.804c-23.564 0-42.667-19.103-42.667-42.667s19.103-42.667 42.667-42.667h577.516l-136.209-136.209c-16.662-16.662-16.662-43.677 0-60.34s43.677-16.662 60.34 0l181.019 181.019c33.325 33.325 33.325 87.355 0 120.68l-181.019 181.019c-16.662 16.662-43.677 16.662-60.34 0s-16.662-43.677 0-60.34l140.497-140.497z" />
<glyph unicode="&#xe912;" glyph-name="attachment" d="M789.777 432.915l-271.529-271.529c-74.981-74.981-196.548-74.981-271.529 0s-74.981 196.548 0 271.529l354.496 354.496c45.822 45.822 120.113 45.822 165.934 0s45.822-120.113 0-165.934l-354.496-354.496c-16.662-16.662-43.677-16.662-60.34 0s-16.662 43.677 0 60.34l271.087 271.087c16.662 16.662 16.662 43.677 0 60.34s-43.677 16.662-60.34 0l-271.087-271.087c-49.987-49.987-49.987-131.032 0-181.019s131.032-49.987 181.019 0l354.496 354.496c79.146 79.146 79.146 207.468 0 286.614s-207.468 79.146-286.614 0l-354.496-354.496c-108.305-108.305-108.305-283.903 0-392.209s283.903-108.305 392.209 0l271.529 271.529c16.662 16.662 16.662 43.677 0 60.34s-43.677 16.662-60.34 0z" />
<glyph unicode="&#xe917;" glyph-name="bar-chart" d="M768 682.667c0 23.564 19.103 42.667 42.667 42.667s42.667-19.103 42.667-42.667v-426.667c0-23.564-19.103-42.667-42.667-42.667s-42.667 19.103-42.667 42.667v426.667zM597.333 426.667c0 23.564 19.103 42.667 42.667 42.667s42.667-19.103 42.667-42.667v-170.667c0-23.564-19.103-42.667-42.667-42.667s-42.667 19.103-42.667 42.667v170.667zM256 554.667c0 23.564 19.103 42.667 42.667 42.667s42.667-19.103 42.667-42.667v-298.667c0-23.564-19.103-42.667-42.667-42.667s-42.667 19.103-42.667 42.667v298.667zM426.667 768c0 23.564 19.103 42.667 42.667 42.667s42.667-19.103 42.667-42.667v-512c0-23.564-19.103-42.667-42.667-42.667s-42.667 19.103-42.667 42.667v512zM170.667 810.667v-682.667h746.667c23.564 0 42.667-19.103 42.667-42.667s-19.103-42.667-42.667-42.667h-789.333c-23.564 0-42.667 19.103-42.667 42.667v725.333c0 23.564 19.103 42.667 42.667 42.667s42.667-19.103 42.667-42.667z" />
<glyph unicode="&#xe923;" glyph-name="book" d="M810.667 192v42.667h-512c-47.128 0-85.333-38.205-85.333-85.333s38.205-85.333 85.333-85.333h512v42.667h-426.667c-23.564 0-42.667 19.103-42.667 42.667s19.103 42.667 42.667 42.667h426.667zM810.667 320v512h-512c-47.128 0-85.333-38.205-85.333-85.333v-449.499c25.103 14.521 54.247 22.832 85.333 22.832h512zM298.667 917.333h512c47.128 0 85.333-38.205 85.333-85.333v-768c0-47.128-38.205-85.333-85.333-85.333h-512c-94.257 0-170.667 76.41-170.667 170.667v597.333c0 94.257 76.41 170.667 170.667 170.667z" />
<glyph unicode="&#xe924;" glyph-name="book-2" d="M810.667 320v512h-512c-47.128 0-85.333-38.205-85.333-85.333v-449.499c25.103 14.521 54.247 22.832 85.333 22.832h512zM298.667 917.333h512c47.128 0 85.333-38.205 85.333-85.333v-768c0-47.128-38.205-85.333-85.333-85.333h-512c-94.257 0-170.667 76.41-170.667 170.667v597.333c0 94.257 76.41 170.667 170.667 170.667zM298.667 234.667c-47.128 0-85.333-38.205-85.333-85.333s38.205-85.333 85.333-85.333h512v170.667h-512zM341.333 661.333c-23.564 0-42.667 19.103-42.667 42.667s19.103 42.667 42.667 42.667h341.333c23.564 0 42.667-19.103 42.667-42.667s-19.103-42.667-42.667-42.667h-341.333z" />
<glyph unicode="&#xe925;" glyph-name="bookmark" d="M341.333 832c-47.128 0-85.333-38.205-85.333-85.333v-675.233l200.466 171.828c31.956 27.391 79.112 27.391 111.068 0l200.466-171.828v675.233c0 47.128-38.205 85.333-85.333 85.333h-341.333zM341.333 917.333h341.333c94.257 0 170.667-76.41 170.667-170.667v-675.233c0-47.128-38.205-85.333-85.333-85.333-20.37 0-40.068 7.287-55.534 20.543l-200.466 171.828-200.466-171.828c-35.782-30.671-89.653-26.527-120.324 9.256-13.257 15.466-20.543 35.164-20.543 55.534v675.233c0 94.257 76.41 170.667 170.667 170.667z" />
<glyph unicode="&#xe926;" glyph-name="bookmark-add" d="M810.667 426.667v-42.667c0-23.564-19.103-42.667-42.667-42.667s-42.667 19.103-42.667 42.667v42.667h-42.667c-23.564 0-42.667 19.103-42.667 42.667s19.103 42.667 42.667 42.667h42.667v42.667c0 23.564 19.103 42.667 42.667 42.667s42.667-19.103 42.667-42.667v-42.667h42.667c23.564 0 42.667-19.103 42.667-42.667s-19.103-42.667-42.667-42.667h-42.667zM810.667 224.306v-152.872c0-47.128-38.205-85.333-85.333-85.333-20.37 0-40.068 7.287-55.534 20.543l-200.466 171.828-200.466-171.828c-35.782-30.671-89.653-26.527-120.324 9.256-13.257 15.466-20.543 35.164-20.543 55.534v675.233c0 94.257 76.41 170.667 170.667 170.667h341.333c94.257 0 170.667-76.41 170.667-170.667v-17.44c121.076-20.313 213.333-125.613 213.333-252.46s-92.258-232.148-213.333-252.46zM725.333 729.226v17.44c0 47.128-38.205 85.333-85.333 85.333h-341.333c-47.128 0-85.333-38.205-85.333-85.333v-675.233l200.466 171.828c31.956 27.391 79.112 27.391 111.068 0l200.466-171.828v152.872c-121.076 20.313-213.333 125.613-213.333 252.46s92.258 232.148 213.333 252.46zM768 306.099c94.257 0 170.667 76.41 170.667 170.667s-76.41 170.667-170.667 170.667c-94.257 0-170.667-76.41-170.667-170.667s76.41-170.667 170.667-170.667z" />
<glyph unicode="&#xe927;" glyph-name="bookmark-remove" d="M810.667 224.306v-152.872c0-47.128-38.205-85.333-85.333-85.333-20.37 0-40.068 7.287-55.534 20.543l-200.466 171.828-200.466-171.828c-35.782-30.671-89.653-26.527-120.324 9.256-13.257 15.466-20.543 35.164-20.543 55.534v675.233c0 94.257 76.41 170.667 170.667 170.667h341.333c94.257 0 170.667-76.41 170.667-170.667v-17.44c121.076-20.313 213.333-125.613 213.333-252.46s-92.258-232.148-213.333-252.46zM725.333 729.226v17.44c0 47.128-38.205 85.333-85.333 85.333h-341.333c-47.128 0-85.333-38.205-85.333-85.333v-675.233l200.466 171.828c31.956 27.391 79.112 27.391 111.068 0l200.466-171.828v152.872c-121.076 20.313-213.333 125.613-213.333 252.46s92.258 232.148 213.333 252.46zM768 306.099c94.257 0 170.667 76.41 170.667 170.667s-76.41 170.667-170.667 170.667c-94.257 0-170.667-76.41-170.667-170.667s76.41-170.667 170.667-170.667zM853.333 512c23.564 0 42.667-19.103 42.667-42.667s-19.103-42.667-42.667-42.667h-170.667c-23.564 0-42.667 19.103-42.667 42.667s19.103 42.667 42.667 42.667h170.667z" />
<glyph unicode="&#xe933;" glyph-name="calender" d="M640 704h-256v-42.667c0-23.564-19.103-42.667-42.667-42.667s-42.667 19.103-42.667 42.667v42.667h-42.667c-47.128 0-85.333-38.205-85.333-85.333v-42.667h682.667v42.667c0 47.128-38.205 85.333-85.333 85.333h-42.667v-42.667c0-23.564-19.103-42.667-42.667-42.667s-42.667 19.103-42.667 42.667v42.667zM725.333 789.333h42.667c94.257 0 170.667-76.41 170.667-170.667v-426.667c0-94.257-76.41-170.667-170.667-170.667h-512c-94.257 0-170.667 76.41-170.667 170.667v426.667c0 94.257 76.41 170.667 170.667 170.667h42.667v42.667c0 23.564 19.103 42.667 42.667 42.667s42.667-19.103 42.667-42.667v-42.667h256v42.667c0 23.564 19.103 42.667 42.667 42.667s42.667-19.103 42.667-42.667v-42.667zM853.333 490.667h-682.667v-298.667c0-47.128 38.205-85.333 85.333-85.333h512c47.128 0 85.333 38.205 85.333 85.333v298.667z" />
<glyph unicode="&#xe935;" glyph-name="calender-check" d="M170.667 576h682.667v42.667c0 47.128-38.205 85.333-85.333 85.333h-42.667v-42.667c0-23.564-19.103-42.667-42.667-42.667s-42.667 19.103-42.667 42.667v42.667h-256v-42.667c0-23.564-19.103-42.667-42.667-42.667s-42.667 19.103-42.667 42.667v42.667h-42.667c-47.128 0-85.333-38.205-85.333-85.333v-42.667zM853.333 490.667h-682.667v-298.667c0-47.128 38.205-85.333 85.333-85.333h256c23.564 0 42.667-19.103 42.667-42.667s-19.103-42.667-42.667-42.667h-256c-94.257 0-170.667 76.41-170.667 170.667v426.667c0 94.257 76.41 170.667 170.667 170.667h42.667v42.667c0 23.564 19.103 42.667 42.667 42.667s42.667-19.103 42.667-42.667v-42.667h256v42.667c0 23.564 19.103 42.667 42.667 42.667s42.667-19.103 42.667-42.667v-42.667h42.667c94.257 0 170.667-76.41 170.667-170.667v-170.667c0-23.564-19.103-42.667-42.667-42.667s-42.667 19.103-42.667 42.667v42.667zM667.138 256l90.51-90.51 150.849 150.849c16.662 16.662 43.677 16.662 60.34 0s16.662-43.677 0-60.34l-181.019-181.019c-16.662-16.662-43.677-16.662-60.34 0l-120.68 120.68c-16.662 16.662-16.662 43.677 0 60.34s43.677 16.662 60.34 0z" />
<glyph unicode="&#xe93c;" glyph-name="caret-down" d="M268.497 515.66l183.163-183.163c33.325-33.325 87.355-33.325 120.68 0l183.163 183.163c16.662 16.662 16.662 43.677 0 60.34s-43.677 16.662-60.34 0l-183.163-183.163-183.163 183.163c-16.662 16.662-43.677 16.662-60.34 0s-16.662-43.677 0-60.34z" />
<glyph unicode="&#xe93d;" glyph-name="caret-up" d="M755.503 380.34l-183.163 183.163c-33.325 33.325-87.355 33.325-120.68 0l-183.163-183.163c-16.662-16.662-16.662-43.677 0-60.34s43.677-16.662 60.34 0l183.163 183.163 183.163-183.163c16.662-16.662 43.677-16.662 60.34 0s16.662 43.677 0 60.34z" />
<glyph unicode="&#xe944;" glyph-name="checkbox" d="M853.333 394.667c0 23.564 19.103 42.667 42.667 42.667s42.667-19.103 42.667-42.667v-202.667c0-94.257-76.41-170.667-170.667-170.667h-512c-94.257 0-170.667 76.41-170.667 170.667v512c0 94.257 76.41 170.667 170.667 170.667h458.667c23.564 0 42.667-19.103 42.667-42.667s-19.103-42.667-42.667-42.667h-458.667c-47.128 0-85.333-38.205-85.333-85.333v-512c0-47.128 38.205-85.333 85.333-85.333h512c47.128 0 85.333 38.205 85.333 85.333v202.667zM494.771 362.223l367.843 367.843c16.662 16.662 43.677 16.662 60.34 0s16.662-43.677 0-60.34l-398.013-398.013c-16.662-16.662-43.677-16.662-60.34 0l-181.019 181.019c-16.662 16.662-16.662 43.677 0 60.34s43.677 16.662 60.34 0l150.849-150.849z" />
<glyph unicode="&#xe945;" glyph-name="check-circle" d="M512-21.333c-259.206 0-469.333 210.128-469.333 469.333s210.128 469.333 469.333 469.333c259.206 0 469.333-210.128 469.333-469.333s-210.128-469.333-469.333-469.333zM512 64c212.077 0 384 171.923 384 384s-171.923 384-384 384c-212.077 0-384-171.923-384-384s171.923-384 384-384zM361.151 460.497l90.51-90.51 211.189 211.189c16.662 16.662 43.677 16.662 60.34 0s16.662-43.677 0-60.34l-241.359-241.359c-16.662-16.662-43.677-16.662-60.34 0l-120.68 120.68c-16.662 16.662-16.662 43.677 0 60.34s43.677 16.662 60.34 0z" />
<glyph unicode="&#xe946;" glyph-name="check-square" d="M256 874.667h512c94.257 0 170.667-76.41 170.667-170.667v-512c0-94.257-76.41-170.667-170.667-170.667h-512c-94.257 0-170.667 76.41-170.667 170.667v512c0 94.257 76.41 170.667 170.667 170.667zM256 789.333c-47.128 0-85.333-38.205-85.333-85.333v-512c0-47.128 38.205-85.333 85.333-85.333h512c47.128 0 85.333 38.205 85.333 85.333v512c0 47.128-38.205 85.333-85.333 85.333h-512zM361.151 460.497l90.51-90.51 211.189 211.189c16.662 16.662 43.677 16.662 60.34 0s16.662-43.677 0-60.34l-241.359-241.359c-16.662-16.662-43.677-16.662-60.34 0l-120.68 120.68c-16.662 16.662-16.662 43.677 0 60.34s43.677 16.662 60.34 0z" />
<glyph unicode="&#xe947;" glyph-name="chevrons-left" d="M256.897 435.722c2.667-31.682 17.069-62.425 42.771-85.146l312.074-275.876c17.655-15.607 44.619-13.947 60.226 3.708s13.947 44.619-3.708 60.226l-312.074 275.876c-17.655 15.607-19.315 42.571-3.708 60.226 1.107 1.253 2.287 2.439 3.534 3.553l312.421 279.233c17.569 15.703 19.082 42.676 3.379 60.245s-42.676 19.082-60.245 3.379l-312.421-279.233c-3.74-3.343-7.28-6.902-10.602-10.66-17.063-19.302-27.246-42.312-30.735-66.031-1.163-5.267-1.809-11.094-1.809-17.222 0-4.268 0.313-8.39 0.897-12.278v0z" />
<glyph unicode="&#xe948;" glyph-name="chevrons-right" d="M355.756 757.367l312.397-275.876c17.673-15.607 19.335-42.571 3.712-60.226-1.109-1.253-2.29-2.439-3.538-3.553l-312.746-279.233c-17.588-15.703-19.102-42.676-3.383-60.245s42.72-19.082 60.308-3.379l312.746 279.233c3.744 3.343 7.287 6.902 10.613 10.66 46.87 52.964 41.884 133.856-11.135 180.677l-312.397 275.876c-17.673 15.607-44.665 13.947-60.288-3.708s-13.961-44.619 3.712-60.226z" />
<glyph unicode="&#xe94c;" glyph-name="close" d="M451.66 448l-271.529-271.529c-16.662-16.662-16.662-43.677 0-60.34s43.677-16.662 60.34 0l271.529 271.529 271.529-271.529c16.662-16.662 43.677-16.662 60.34 0s16.662 43.677 0 60.34l-271.529 271.529 271.529 271.529c16.662 16.662 16.662 43.677 0 60.34s-43.677 16.662-60.34 0l-271.529-271.529-271.529 271.529c-16.662 16.662-43.677 16.662-60.34 0s-16.662-43.677 0-60.34l271.529-271.529z" />
<glyph unicode="&#xe94d;" glyph-name="close-circle" d="M512-21.333c-259.206 0-469.333 210.128-469.333 469.333s210.128 469.333 469.333 469.333c259.206 0 469.333-210.128 469.333-469.333s-210.128-469.333-469.333-469.333zM512 64c212.077 0 384 171.923 384 384s-171.923 384-384 384c-212.077 0-384-171.923-384-384s171.923-384 384-384zM512 508.34l90.51 90.51c16.662 16.662 43.677 16.662 60.34 0s16.662-43.677 0-60.34l-90.51-90.51 90.51-90.51c16.662-16.662 16.662-43.677 0-60.34s-43.677-16.662-60.34 0l-90.51 90.51-90.51-90.51c-16.662-16.662-43.677-16.662-60.34 0s-16.662 43.677 0 60.34l90.51 90.51-90.51 90.51c-16.662 16.662-16.662 43.677 0 60.34s43.677 16.662 60.34 0l90.51-90.51z" />
<glyph unicode="&#xe94e;" glyph-name="close-square" d="M512 508.34l90.51 90.51c16.662 16.662 43.677 16.662 60.34 0s16.662-43.677 0-60.34l-90.51-90.51 90.51-90.51c16.662-16.662 16.662-43.677 0-60.34s-43.677-16.662-60.34 0l-90.51 90.51-90.51-90.51c-16.662-16.662-43.677-16.662-60.34 0s-16.662 43.677 0 60.34l90.51 90.51-90.51 90.51c-16.662 16.662-16.662 43.677 0 60.34s43.677 16.662 60.34 0l90.51-90.51zM256 874.667h512c94.257 0 170.667-76.41 170.667-170.667v-512c0-94.257-76.41-170.667-170.667-170.667h-512c-94.257 0-170.667 76.41-170.667 170.667v512c0 94.257 76.41 170.667 170.667 170.667zM256 789.333c-47.128 0-85.333-38.205-85.333-85.333v-512c0-47.128 38.205-85.333 85.333-85.333h512c47.128 0 85.333 38.205 85.333 85.333v512c0 47.128-38.205 85.333-85.333 85.333h-512z" />
<glyph unicode="&#xe959;" glyph-name="conversation" d="M88.102 81.89l42.828 113.009c-7.415 12.835-13.993 26.152-19.683 39.873-17.035 41.081-25.915 85.29-25.915 130.664 0 69.374 20.785 135.755 59.024 191.912 13.263 19.477 39.804 24.515 59.281 11.252s24.515-39.804 11.252-59.281c-28.672-42.105-44.224-91.777-44.224-143.882 0-34.107 6.65-67.214 19.407-97.978 6.422-15.487 14.359-30.296 23.684-44.224 7.679-11.471 9.334-25.948 4.442-38.856l-16.727-44.135 44.135 16.727c12.908 4.892 27.385 3.237 38.856-4.442 13.929-9.325 28.738-17.262 44.224-23.684 30.764-12.757 63.871-19.407 97.978-19.407 47.209 0 92.442 12.758 131.942 36.569 20.181 12.165 46.403 5.667 58.568-14.514s5.667-46.403-14.514-58.568c-52.705-31.771-113.152-48.82-175.996-48.82-45.374 0-89.583 8.88-130.664 25.915-13.721 5.69-27.038 12.267-39.873 19.683l-113.009-42.828c-34.385-13.031-68.050 20.633-55.018 55.018zM749.331 217.915c-41.081-17.035-85.29-25.915-130.664-25.915-188.513 0-341.333 152.82-341.333 341.333s152.82 341.333 341.333 341.333c188.513 0 341.333-152.82 341.333-341.333 0-45.374-8.88-89.583-25.915-130.664-5.69-13.721-12.267-27.038-19.683-39.873l42.828-113.009c13.031-34.385-20.633-68.050-55.018-55.018l-113.009 42.828c-12.835-7.415-26.152-13.993-39.873-19.683zM827.134 352.275c-4.892 12.908-3.237 27.385 4.442 38.856 9.325 13.929 17.262 28.738 23.684 44.224 12.757 30.764 19.407 63.871 19.407 97.978 0 141.385-114.615 256-256 256s-256-114.615-256-256c0-141.385 114.615-256 256-256 34.107 0 67.214 6.65 97.978 19.407 15.487 6.422 30.296 14.359 44.224 23.684 11.471 7.679 25.948 9.334 38.856 4.442l44.135-16.727-16.727 44.135z" />
<glyph unicode="&#xe95a;" glyph-name="copy" d="M448 810.667c-47.128 0-85.333-38.205-85.333-85.333v-341.333c0-47.128 38.205-85.333 85.333-85.333h341.333c47.128 0 85.333 38.205 85.333 85.333v341.333c0 47.128-38.205 85.333-85.333 85.333h-341.333zM746.667 213.333v-42.667c0-94.257-76.41-170.667-170.667-170.667h-341.333c-94.257 0-170.667 76.41-170.667 170.667v341.333c0 94.257 76.41 170.667 170.667 170.667h42.667v42.667c0 94.257 76.41 170.667 170.667 170.667h341.333c94.257 0 170.667-76.41 170.667-170.667v-341.333c0-94.257-76.41-170.667-170.667-170.667h-42.667zM661.333 213.333h-213.333c-94.257 0-170.667 76.41-170.667 170.667v213.333h-42.667c-47.128 0-85.333-38.205-85.333-85.333v-341.333c0-47.128 38.205-85.333 85.333-85.333h341.333c47.128 0 85.333 38.205 85.333 85.333v42.667z" />
<glyph unicode="&#xe962;" glyph-name="delete" d="M341.333 768v85.333c0 23.564 19.103 42.667 42.667 42.667h256c23.564 0 42.667-19.103 42.667-42.667v-85.333h170.667c23.564 0 42.667-19.103 42.667-42.667s-19.103-42.667-42.667-42.667v-512c0-94.257-76.41-170.667-170.667-170.667h-341.333c-94.257 0-170.667 76.41-170.667 170.667v512c-23.564 0-42.667 19.103-42.667 42.667s19.103 42.667 42.667 42.667h170.667zM256 682.667v-512c0-47.128 38.205-85.333 85.333-85.333h341.333c47.128 0 85.333 38.205 85.333 85.333v512h-512zM384 554.667c0 23.564 19.103 42.667 42.667 42.667s42.667-19.103 42.667-42.667v-341.333c0-23.564-19.103-42.667-42.667-42.667s-42.667 19.103-42.667 42.667v341.333zM554.667 554.667c0 23.564 19.103 42.667 42.667 42.667s42.667-19.103 42.667-42.667v-341.333c0-23.564-19.103-42.667-42.667-42.667s-42.667 19.103-42.667 42.667v341.333zM426.667 768h170.667v42.667h-170.667v-42.667z" />
<glyph unicode="&#xe966;" glyph-name="dislike" d="M674.616 326.926v462.407h-407.95c-40.42 0-75.296-28.359-83.54-67.929l-53.333-256c-1.193-5.725-1.794-11.557-1.794-17.404 0-47.128 38.205-85.333 85.333-85.333h162.585c47.128 0 85.333-38.205 85.333-85.333v-106.667c0-35.346 28.654-64 64-64h75.918l73.447 220.26zM759.95 789.333v-426.667h42.635c47.128 0 85.333 38.205 85.333 85.333v256c0 47.128-38.205 85.333-85.333 85.333h-42.635zM748.032 277.333l-65.911-197.66c-11.618-34.841-44.225-58.34-80.951-58.34h-75.918c-82.475 0-149.333 66.859-149.333 149.333v106.667h-162.585c-94.257 0-170.667 76.41-170.667 170.667 0 11.695 1.202 23.359 3.587 34.808l53.333 256c16.488 79.141 86.239 135.858 167.079 135.858h535.918c94.257 0 170.667-76.41 170.667-170.667v-256c0-94.257-76.41-170.667-170.667-170.667h-54.553z" />
<glyph unicode="&#xe977;" glyph-name="edit-1" d="M805.49 560.471l-301.699-301.699c-8.002-8.002-18.854-12.497-30.17-12.497h-120.68c-23.564 0-42.667 19.103-42.667 42.667v120.68c0 11.316 4.495 22.168 12.497 30.17l422.378 422.378c16.662 16.662 43.677 16.662 60.34 0l120.68-120.68c16.662-16.662 16.662-43.677 0-60.34l-120.68-120.68zM853.333 352c0 23.564 19.103 42.667 42.667 42.667s42.667-19.103 42.667-42.667v-160c0-94.257-76.41-170.667-170.667-170.667h-512c-94.257 0-170.667 76.41-170.667 170.667v512c0 94.257 76.41 170.667 170.667 170.667h160c23.564 0 42.667-19.103 42.667-42.667s-19.103-42.667-42.667-42.667h-160c-47.128 0-85.333-38.205-85.333-85.333v-512c0-47.128 38.205-85.333 85.333-85.333h512c47.128 0 85.333 38.205 85.333 85.333v160zM395.609 391.948v-60.34h60.34l259.032 259.032-60.34 60.34-259.032-259.032zM714.981 711.32l60.34-60.34 60.34 60.34-60.34 60.34-60.34-60.34z" />
<glyph unicode="&#xe97a;" glyph-name="emoji" d="M512-21.333c-259.206 0-469.333 210.128-469.333 469.333s210.128 469.333 469.333 469.333c259.206 0 469.333-210.128 469.333-469.333s-210.128-469.333-469.333-469.333zM512 64c212.077 0 384 171.923 384 384s-171.923 384-384 384c-212.077 0-384-171.923-384-384s171.923-384 384-384zM713.205 419.552c7.853 22.217 32.229 33.862 54.446 26.009s33.862-32.229 26.009-54.446c-41.839-118.375-154.073-199.115-281.661-199.115s-239.822 80.74-281.661 199.115c-7.853 22.217 3.792 46.594 26.009 54.446s46.594-3.792 54.446-26.009c29.879-84.534 110.063-142.219 201.205-142.219s171.327 57.684 201.205 142.219zM384 533.333c-23.564 0-42.667 19.103-42.667 42.667s19.103 42.667 42.667 42.667c23.564 0 42.667-19.103 42.667-42.667s-19.103-42.667-42.667-42.667zM640 533.333c-23.564 0-42.667 19.103-42.667 42.667s19.103 42.667 42.667 42.667c23.564 0 42.667-19.103 42.667-42.667s-19.103-42.667-42.667-42.667z" />
<glyph unicode="&#xe97c;" glyph-name="eye" d="M512 64c-234.969 0-469.333 210.452-469.333 384s234.365 384 469.333 384c234.969 0 469.333-210.452 469.333-384s-234.365-384-469.333-384zM512 149.333c189.766 0 384 174.416 384 298.667s-194.234 298.667-384 298.667c-189.766 0-384-174.416-384-298.667s194.234-298.667 384-298.667zM512 256c-106.039 0-192 85.961-192 192s85.961 192 192 192c106.039 0 192-85.961 192-192s-85.961-192-192-192zM512 341.333c58.91 0 106.667 47.756 106.667 106.667s-47.756 106.667-106.667 106.667c-58.91 0-106.667-47.756-106.667-106.667s47.756-106.667 106.667-106.667z" />
<glyph unicode="&#xe980;" glyph-name="favorite" d="M512 769.828c63.138 68.879 125.925 104.839 213.333 104.839 150.849 0 256-114.996 256-266.085 0-184.061-142.183-370.633-420.827-563.149-29.192-20.169-67.819-20.169-97.012 0-278.644 192.516-420.827 379.088-420.827 563.149 0 151.089 105.151 266.085 256 266.085 87.409 0 150.195-35.96 213.333-104.839zM478.636 677.405c-60.504 75.904-110.346 111.928-179.969 111.928-101.932 0-170.667-75.17-170.667-180.752 0-149.296 126.093-314.754 384-492.943 257.907 178.189 384 343.647 384 492.943 0 105.581-68.735 180.752-170.667 180.752-69.624 0-119.465-36.025-179.969-111.928-17.081-21.429-49.646-21.429-66.728 0z" />
<glyph unicode="&#xe986;" glyph-name="filter" d="M168.766 741.537c0-24.91 10.885-48.577 29.798-64.789l239.061-204.916c18.912-16.211 29.797-39.877 29.798-64.786l0.009-252.676 85.334-42.667v295.34c0 24.911 10.885 48.578 29.799 64.79l239.068 204.916c18.914 16.212 29.799 39.879 29.799 64.79v5.128c0 11.782-9.551 21.333-21.333 21.333h-640c-11.782 0-21.333-9.551-21.333-21.333v-5.13zM83.433 741.537v5.13c0 58.91 47.756 106.667 106.667 106.667h640c58.91 0 106.667-47.756 106.667-106.667v-5.128c0-49.822-21.771-97.156-59.598-129.58l-239.068-204.916v-295.34c0-47.128-38.205-85.333-85.333-85.333-13.248 0-26.313 3.084-38.162 9.009l-85.334 42.667c-28.909 14.454-47.17 44.001-47.171 76.321l-0.009 252.676-239.061 204.916c-37.826 32.424-59.596 79.757-59.596 129.578z" />
<glyph unicode="&#xe9a3;" glyph-name="home" d="M682.667 85.333h85.333c47.128 0 85.333 38.205 85.333 85.333v366.598c0 27.2-12.967 52.77-34.91 68.842l-256 187.509c-30.020 21.988-70.827 21.988-100.847 0l-256-187.509c-21.943-16.072-34.91-41.642-34.91-68.842v-366.598c0-47.128 38.205-85.333 85.333-85.333h85.333v341.333c0 23.564 19.103 42.667 42.667 42.667h256c23.564 0 42.667-19.103 42.667-42.667v-341.333zM597.333 85.333v298.667h-170.667v-298.667h170.667zM155.153 674.949l256 187.509c60.040 43.977 141.655 43.977 201.695 0l256-187.509c43.886-32.145 69.819-83.285 69.819-137.684v-366.598c0-94.257-76.41-170.667-170.667-170.667h-512c-94.257 0-170.667 76.41-170.667 170.667v366.598c0 54.399 25.933 105.539 69.819 137.684z" />
<glyph unicode="&#xe9ae;" glyph-name="language" d="M481.526 0.091c-16.257 16.59-16.257 43.135 0 59.725 100.957 103.026 158.474 241.012 158.474 388.184s-57.517 285.158-158.474 388.184c-16.257 16.59-16.257 43.135 0 59.725 3.016 3.078 6.063 6.126 9.141 9.142 8.183 8.022 19.249 12.415 30.705 12.19 255.254-5.008 459.962-213.532 459.962-469.241s-204.708-464.233-459.962-469.241c-11.457-0.225-22.523 4.168-30.705 12.19-3.077 3.017-6.124 6.064-9.141 9.142zM542.474 59.816c2.616-2.67 5.259-5.314 7.929-7.931l-29.868-30.468-0.837 42.658c29.681 0.582 58.528 4.529 86.177 11.473 166.864 41.908 290.125 192.978 290.125 372.451s-123.261 330.543-290.125 372.451c-27.649 6.944-56.496 10.891-86.177 11.473l0.837 42.658 29.868-30.468c-2.669-2.617-5.313-5.261-7.929-7.931l-30.474 29.862 30.474 29.862c23.154-23.629 44.331-48.86 63.4-75.458 76.825-107.152 119.459-236.472 119.459-372.451s-42.633-265.299-119.459-372.451c-19.070-26.598-40.246-51.829-63.4-75.458l-30.474 29.862 30.474 29.862zM410.746 277.333c26.262-81.373 71.184-155.732 131.729-217.517 16.257-16.59 16.257-43.135 0-59.725-3.016-3.078-6.063-6.126-9.141-9.142-8.183-8.022-19.249-12.415-30.705-12.19-255.254 5.008-459.962 213.532-459.962 469.241s204.708 464.233 459.962 469.241c11.457 0.225 22.523-4.168 30.705-12.19 3.077-3.017 6.124-6.064 9.141-9.142 16.257-16.59 16.257-43.135 0-59.725-60.545-61.786-105.467-136.144-131.729-217.517h485.254c23.564 0 42.667-19.103 42.667-42.667s-19.103-42.667-42.667-42.667h-505.47c-4.318-27.962-6.53-56.471-6.53-85.333s2.212-57.372 6.53-85.333h505.47c23.564 0 42.667-19.103 42.667-42.667s-19.103-42.667-42.667-42.667h-485.254zM304.321 362.667c-3.743 28.048-5.654 56.541-5.654 85.333s1.911 57.286 5.654 85.333h-166.799c-6.232-27.452-9.522-56.013-9.522-85.333s3.29-57.882 9.522-85.333h166.799zM321.694 277.333h-153.766c49.314-99.232 140.299-174.184 250.198-201.784 27.649-6.944 56.496-10.891 86.177-11.473l-0.837-42.658-29.868 30.468c2.669 2.617 5.313 5.261 7.929 7.931l30.474-29.862-30.474-29.862c-23.154 23.629-44.331 48.86-63.4 75.458-43.754 61.026-76.418 129.243-96.431 201.784zM321.694 618.667c20.014 72.542 52.677 140.758 96.431 201.784 19.070 26.598 40.246 51.829 63.4 75.458l30.474-29.862-30.474-29.862c-2.616 2.67-5.259 5.314-7.929 7.931l29.868 30.468 0.837-42.658c-29.681-0.582-58.528-4.529-86.177-11.473-109.899-27.601-200.884-102.553-250.198-201.784h153.766z" />
<glyph unicode="&#xe9b4;" glyph-name="like" d="M341.333 569.167v-462.501h407.918c40.42 0 75.296 28.359 83.54 67.929l53.333 256c1.193 5.725 1.794 11.557 1.794 17.404 0 47.128-38.205 85.333-85.333 85.333h-162.585c-47.128 0-85.333 38.205-85.333 85.333v106.667c0 35.346-28.654 64-64 64h-75.918l-73.416-220.166zM256 106.667v426.667h-42.667c-47.128 0-85.333-38.205-85.333-85.333v-256c0-47.128 38.205-85.333 85.333-85.333h42.667zM333.797 816.327c11.618 34.841 44.225 58.34 80.951 58.34h75.918c82.475 0 149.333-66.859 149.333-149.333v-106.667h162.585c94.257 0 170.667-76.41 170.667-170.667 0-11.695-1.202-23.359-3.587-34.808l-53.333-256c-16.488-79.141-86.239-135.858-167.079-135.858h-535.918c-94.257 0-170.667 76.41-170.667 170.667v256c0 94.257 76.41 170.667 170.667 170.667h54.553l65.911 197.66z" />
<glyph unicode="&#xe9b5;" glyph-name="line-chart" d="M85.333 233.892c-0.010 0.542-0.010 1.084 0 1.627v575.148c0 23.564 19.103 42.667 42.667 42.667s42.667-19.103 42.667-42.667v-411.344l50.281 90.506c34.331 61.796 112.258 84.061 174.054 49.73 24.286-13.492 43.523-34.519 54.806-59.907l20.673-46.515c9.57-21.533 34.785-31.231 56.318-21.661 9.968 4.43 17.861 12.51 22.056 22.579l75.766 181.839c27.189 65.255 102.13 96.113 167.385 68.923 23.327-9.719 43.254-26.126 57.272-47.152l82.221-123.332c13.071-19.607 7.773-46.097-11.834-59.168s-46.097-7.773-59.168 11.834l-82.221 123.332c-4.673 7.009-11.315 12.478-19.091 15.717-21.752 9.063-46.732-1.223-55.795-22.974l-75.766-181.839c-12.586-30.207-36.264-54.447-66.169-67.737-64.6-28.711-140.243 0.383-168.953 64.983l-20.673 46.515c-3.761 8.462-10.173 15.472-18.269 19.969-20.599 11.444-46.574 4.022-58.018-16.577l-124.876-224.777v-95.611h746.667c23.564 0 42.667-19.103 42.667-42.667s-19.103-42.667-42.667-42.667h-789.333c-23.564 0-42.667 19.103-42.667 42.667v148.558z" />
<glyph unicode="&#xe9bf;" glyph-name="lock-open" d="M384 640h341.333c94.257 0 170.667-76.41 170.667-170.667v-298.667c0-94.257-76.41-170.667-170.667-170.667h-426.667c-94.257 0-170.667 76.41-170.667 170.667v298.667c0 94.257 76.41 170.667 170.667 170.667v42.667c0 117.821 95.513 213.333 213.333 213.333 62.523 0 120.75-27.107 160.988-73.351 15.468-17.777 13.596-44.727-4.181-60.195s-44.727-13.596-60.195 4.181c-24.198 27.81-59.043 44.031-96.612 44.031-70.692 0-128-57.308-128-128v-42.667zM298.667 554.667c-47.128 0-85.333-38.205-85.333-85.333v-298.667c0-47.128 38.205-85.333 85.333-85.333h426.667c47.128 0 85.333 38.205 85.333 85.333v298.667c0 47.128-38.205 85.333-85.333 85.333h-426.667zM512 170.667c-82.475 0-149.333 66.859-149.333 149.333s66.859 149.333 149.333 149.333c82.475 0 149.333-66.859 149.333-149.333s-66.859-149.333-149.333-149.333zM512 256c35.346 0 64 28.654 64 64s-28.654 64-64 64c-35.346 0-64-28.654-64-64s28.654-64 64-64z" />
<glyph unicode="&#xe9c2;" glyph-name="mail" d="M981.333 576.959c0.015-0.652 0.015-1.302 0-1.95v-340.342c0-94.257-76.41-170.667-170.667-170.667h-597.333c-94.257 0-170.667 76.41-170.667 170.667v340.341c-0.015 0.648-0.015 1.299 0 1.95v84.375c0 94.257 76.41 170.667 170.667 170.667h597.333c94.257 0 170.667-76.41 170.667-170.667v-84.375zM896 607.745v53.588c0 47.128-38.205 85.333-85.333 85.333h-597.333c-47.128 0-85.333-38.205-85.333-85.333v-53.588l371.74-111.522c7.997-2.399 16.523-2.399 24.52 0l371.74 111.522zM896 518.655l-347.219-104.166c-23.992-7.198-49.569-7.198-73.561 0l-347.219 104.166v-283.988c0-47.128 38.205-85.333 85.333-85.333h597.333c47.128 0 85.333 38.205 85.333 85.333v283.988z" />
<glyph unicode="&#xe9c3;" glyph-name="mail-add" d="M896 192v-85.333c0-23.564-19.103-42.667-42.667-42.667s-42.667 19.103-42.667 42.667v85.333h-85.333c-23.564 0-42.667 19.103-42.667 42.667s19.103 42.667 42.667 42.667h85.333v85.333c0 23.564 19.103 42.667 42.667 42.667s42.667-19.103 42.667-42.667v-85.333h85.333c23.564 0 42.667-19.103 42.667-42.667s-19.103-42.667-42.667-42.667h-85.333zM42.667 575.008c-0.015 0.648-0.015 1.299 0 1.95v84.375c0 94.257 76.41 170.667 170.667 170.667h597.333c94.257 0 170.667-76.41 170.667-170.667v-84.375c0.015-0.652 0.015-1.302 0-1.95v-84.342c0-23.564-19.103-42.667-42.667-42.667s-42.667 19.103-42.667 42.667v27.988l-347.219-104.166c-23.992-7.198-49.569-7.198-73.561 0l-347.219 104.166v-283.988c0-47.128 38.205-85.333 85.333-85.333h384c23.564 0 42.667-19.103 42.667-42.667s-19.103-42.667-42.667-42.667h-384c-94.257 0-170.667 76.41-170.667 170.667v340.341zM896 607.745v53.588c0 47.128-38.205 85.333-85.333 85.333h-597.333c-47.128 0-85.333-38.205-85.333-85.333v-53.588l371.74-111.522c7.997-2.399 16.523-2.399 24.52 0l371.74 111.522z" />
<glyph unicode="&#xe9c4;" glyph-name="mail-at" d="M725.333 448v-21.333c0-35.346 28.654-64 64-64s64 28.654 64 64v21.333c0 188.513-152.82 341.333-341.333 341.333s-341.333-152.82-341.333-341.333c0-188.513 152.82-341.333 341.333-341.333 83.051 0 161.391 29.71 222.953 82.867 17.835 15.4 44.778 13.426 60.178-4.409s13.426-44.778-4.409-60.178c-76.917-66.416-174.999-103.613-278.722-103.613-235.641 0-426.667 191.025-426.667 426.667s191.025 426.667 426.667 426.667c235.641 0 426.667-191.025 426.667-426.667v-21.333c0-82.475-66.859-149.333-149.333-149.333-41.312 0-78.706 16.776-105.742 43.886-38.861-52.509-101.251-86.553-171.592-86.553-117.821 0-213.333 95.513-213.333 213.333s95.513 213.333 213.333 213.333c117.821 0 213.333-95.513 213.333-213.333zM512 320c70.692 0 128 57.308 128 128s-57.308 128-128 128c-70.692 0-128-57.308-128-128s57.308-128 128-128z" />
<glyph unicode="&#xe9c9;" glyph-name="menu" d="M853.333 746.667c23.564 0 42.667-19.103 42.667-42.667s-19.103-42.667-42.667-42.667h-682.667c-23.564 0-42.667 19.103-42.667 42.667s19.103 42.667 42.667 42.667h682.667zM853.333 490.667c23.564 0 42.667-19.103 42.667-42.667s-19.103-42.667-42.667-42.667h-682.667c-23.564 0-42.667 19.103-42.667 42.667s19.103 42.667 42.667 42.667h682.667zM853.333 234.667c23.564 0 42.667-19.103 42.667-42.667s-19.103-42.667-42.667-42.667h-682.667c-23.564 0-42.667 19.103-42.667 42.667s19.103 42.667 42.667 42.667h682.667z" />
<glyph unicode="&#xe9ca;" glyph-name="message" d="M683.493 34.008c-53.91-22.354-111.926-34.008-171.493-34.008-247.424 0-448 200.576-448 448s200.576 448 448 448c247.424 0 448-200.576 448-448 0-59.567-11.654-117.583-34.008-171.493-8.385-20.222-18.242-39.778-29.474-58.519l60.713-160.201c13.031-34.385-20.633-68.050-55.018-55.018l-160.201 60.713c-18.741-11.233-38.297-21.089-58.519-29.474zM809.169 207.678c-4.892 12.908-3.237 27.385 4.442 38.856 13.21 19.733 24.456 40.715 33.555 62.659 18.077 43.593 27.5 90.507 27.5 138.807 0 200.295-162.371 362.667-362.667 362.667s-362.667-162.371-362.667-362.667c0-200.295 162.371-362.667 362.667-362.667 48.3 0 95.214 9.424 138.807 27.5 21.944 9.099 42.926 20.345 62.659 33.555 11.471 7.679 25.948 9.334 38.856 4.442l91.538-34.691-34.691 91.538zM298.667 448c0 23.564 19.103 42.667 42.667 42.667s42.667-19.103 42.667-42.667c0-23.564-19.103-42.667-42.667-42.667s-42.667 19.103-42.667 42.667zM469.333 448c0 23.564 19.103 42.667 42.667 42.667s42.667-19.103 42.667-42.667c0-23.564-19.103-42.667-42.667-42.667s-42.667 19.103-42.667 42.667zM640 448c0 23.564 19.103 42.667 42.667 42.667s42.667-19.103 42.667-42.667c0-23.564-19.103-42.667-42.667-42.667s-42.667 19.103-42.667 42.667z" />
<glyph unicode="&#xe9cd;" glyph-name="microphone" d="M512 832c-70.692 0-128-57.308-128-128v-213.333c0-70.692 57.308-128 128-128s128 57.308 128 128v213.333c0 70.692-57.308 128-128 128zM554.667 109.010v-66.344c0-23.564-19.103-42.667-42.667-42.667s-42.667 19.103-42.667 42.667v66.344c-191.998 21.224-341.333 184.001-341.333 381.656 0 23.564 19.103 42.667 42.667 42.667s42.667-19.103 42.667-42.667c0-164.949 133.718-298.667 298.667-298.667s298.667 133.718 298.667 298.667c0 23.564 19.103 42.667 42.667 42.667s42.667-19.103 42.667-42.667c0-197.656-149.335-360.432-341.333-381.656zM512 917.333c117.821 0 213.333-95.513 213.333-213.333v-213.333c0-117.821-95.513-213.333-213.333-213.333s-213.333 95.513-213.333 213.333v213.333c0 117.821 95.513 213.333 213.333 213.333z" />
<glyph unicode="&#xe9d6;" glyph-name="mousic" d="M384 539.395v-304.729c0-4.938-0.839-9.68-2.382-14.091 1.566-9.292 2.382-18.838 2.382-28.575 0-94.257-76.41-170.667-170.667-170.667s-170.667 76.41-170.667 170.667c0 94.257 76.41 170.667 170.667 170.667 31.086 0 60.231-8.311 85.333-22.832v235.503c-0.008 0.478-0.008 0.955 0 1.43v102.752c0 84.236 61.459 155.873 144.716 168.682l298.667 45.949c93.161 14.332 180.301-49.57 194.633-142.731 1.321-8.587 1.985-17.263 1.985-25.951v-63.473c0.008-0.478 0.008-0.955 0-1.43v-340.566c0-4.938-0.839-9.68-2.382-14.091 1.566-9.292 2.382-18.838 2.382-28.575 0-94.257-76.41-170.667-170.667-170.667s-170.667 76.41-170.667 170.667c0 94.257 76.41 170.667 170.667 170.667 31.086 0 60.231-8.311 85.333-22.832v186.433l-469.333-72.205zM384 625.733l469.333 72.205v27.531c0 4.344-0.332 8.682-0.992 12.976-7.166 46.58-50.736 78.532-97.317 71.366l-298.667-45.949c-41.628-6.404-72.358-42.223-72.358-84.341v-53.787zM213.333 106.667c47.128 0 85.333 38.205 85.333 85.333s-38.205 85.333-85.333 85.333c-47.128 0-85.333-38.205-85.333-85.333s38.205-85.333 85.333-85.333zM768 192c47.128 0 85.333 38.205 85.333 85.333s-38.205 85.333-85.333 85.333c-47.128 0-85.333-38.205-85.333-85.333s38.205-85.333 85.333-85.333z" />
<glyph unicode="&#xe9d9;" glyph-name="music-2" d="M512 405.349v298.651c0 94.257 76.41 170.667 170.667 170.667h170.667c23.564 0 42.667-19.103 42.667-42.667v-85.333c0-94.257-76.41-170.667-170.667-170.667h-128v-341.333c0-117.821-95.513-213.333-213.333-213.333s-213.333 95.513-213.333 213.333c0 117.821 95.513 213.333 213.333 213.333 48.026 0 92.345-15.87 128-42.651zM384 106.667c70.692 0 128 57.308 128 128s-57.308 128-128 128c-70.692 0-128-57.308-128-128s57.308-128 128-128zM725.333 661.333c47.128 0 85.333 38.205 85.333 85.333v42.667h-128c-47.128 0-85.333-38.205-85.333-85.333v-42.667h128z" />
<glyph unicode="&#xe9da;" glyph-name="music-list" d="M341.333 382.501v321.499c0 70.692 57.308 128 128 128h170.667c23.564 0 42.667-19.103 42.667-42.667v-85.333c0-70.692-57.308-128-128-128h-128v-341.333c0-94.257-76.41-170.667-170.667-170.667s-170.667 76.41-170.667 170.667c0 94.257 76.41 170.667 170.667 170.667 31.086 0 60.231-8.311 85.333-22.832zM256 149.333c47.128 0 85.333 38.205 85.333 85.333s-38.205 85.333-85.333 85.333c-47.128 0-85.333-38.205-85.333-85.333s38.205-85.333 85.333-85.333zM554.667 661.333c23.564 0 42.667 19.103 42.667 42.667v42.667h-128c-23.564 0-42.667-19.103-42.667-42.667v-42.667h128zM725.333 490.667c-23.564 0-42.667 19.103-42.667 42.667s19.103 42.667 42.667 42.667h170.667c23.564 0 42.667-19.103 42.667-42.667s-19.103-42.667-42.667-42.667h-170.667zM554.667 320c-23.564 0-42.667 19.103-42.667 42.667s19.103 42.667 42.667 42.667h341.333c23.564 0 42.667-19.103 42.667-42.667s-19.103-42.667-42.667-42.667h-341.333zM554.667 149.333c-23.564 0-42.667 19.103-42.667 42.667s19.103 42.667 42.667 42.667h341.333c23.564 0 42.667-19.103 42.667-42.667s-19.103-42.667-42.667-42.667h-341.333z" />
<glyph unicode="&#xe9f1;" glyph-name="photo" d="M938.667 320.431c0.003-0.309 0.003-0.618 0-0.928v-127.503c0-94.257-76.41-170.667-170.667-170.667h-512c-94.257 0-170.667 76.41-170.667 170.667v512c0 94.257 76.41 170.667 170.667 170.667h512c94.257 0 170.667-76.41 170.667-170.667v-383.569zM853.333 405.333v298.667c0 47.128-38.205 85.333-85.333 85.333h-512c-47.128 0-85.333-38.205-85.333-85.333v-512c0-18.282 5.749-35.221 15.538-49.108l112.257 168.386c39.213 58.82 118.684 74.714 177.504 35.501 1.97-1.314 3.904-2.682 5.798-4.102l65.419-49.064 93.165 116.457c43.189 53.986 121.443 63.921 176.751 22.439l36.233-27.175zM853.333 298.667l-87.433 65.575c-18.436 13.827-44.521 10.516-58.917-7.48l-118.999-148.749c-14.396-17.995-40.481-21.307-58.917-7.48l-98.502 73.877c-0.631 0.474-1.276 0.93-1.933 1.367-19.607 13.071-46.097 7.773-59.168-11.834l-104.851-157.277h503.388c47.128 0 85.333 38.205 85.333 85.333v106.667zM362.667 448c-82.475 0-149.333 66.859-149.333 149.333s66.859 149.333 149.333 149.333c82.475 0 149.333-66.859 149.333-149.333s-66.859-149.333-149.333-149.333zM362.667 533.333c35.346 0 64 28.654 64 64s-28.654 64-64 64c-35.346 0-64-28.654-64-64s28.654-64 64-64z" />
<glyph unicode="&#xe9f7;" glyph-name="play" d="M390.895 786.416c-14.465 10.321-31.792 15.868-49.562 15.868-47.128 0-85.333-38.205-85.333-85.333v-537.889c0-17.77 5.547-35.096 15.868-49.562 27.372-38.365 80.662-47.276 119.027-19.903l376.949 268.945c7.69 5.487 14.416 12.213 19.903 19.903 27.372 38.365 18.461 91.655-19.903 119.027l-376.949 268.945zM440.457 855.881l376.949-268.945c76.729-54.745 94.551-161.325 39.807-238.054-10.974-15.381-24.426-28.833-39.807-39.807l-376.949-268.945c-76.729-54.745-183.309-36.923-238.054 39.807-20.642 28.931-31.736 63.584-31.736 99.124v537.889c0 94.257 76.41 170.667 170.667 170.667 35.54 0 70.193-11.095 99.124-31.736z" />
<glyph unicode="&#xe9f8;" glyph-name="play-circle" d="M512-21.333c-259.206 0-469.333 210.128-469.333 469.333s210.128 469.333 469.333 469.333c259.206 0 469.333-210.128 469.333-469.333s-210.128-469.333-469.333-469.333zM512 64c212.077 0 384 171.923 384 384s-171.923 384-384 384c-212.077 0-384-171.923-384-384s171.923-384 384-384zM702.812 518.529c38.951-26.532 49.018-79.616 22.486-118.566-6.020-8.838-13.648-16.466-22.486-22.486l-217.439-148.112c-38.951-26.532-92.034-16.464-118.566 22.486-9.647 14.163-14.807 30.903-14.807 48.040v296.223c0 47.128 38.205 85.333 85.333 85.333 17.137 0 33.877-5.16 48.040-14.807l217.439-148.112zM437.333 596.115v-296.223l217.439 148.112-217.439 148.112z" />
<glyph unicode="&#xe9fe;" glyph-name="post-add" d="M853.333 149.333v-85.333c0-23.564-19.103-42.667-42.667-42.667s-42.667 19.103-42.667 42.667v85.333h-85.333c-23.564 0-42.667 19.103-42.667 42.667s19.103 42.667 42.667 42.667h85.333v85.333c0 23.564 19.103 42.667 42.667 42.667s42.667-19.103 42.667-42.667v-85.333h85.333c23.564 0 42.667-19.103 42.667-42.667s-19.103-42.667-42.667-42.667h-85.333zM298.667 597.333c-23.564 0-42.667 19.103-42.667 42.667s19.103 42.667 42.667 42.667h426.667c23.564 0 42.667-19.103 42.667-42.667s-19.103-42.667-42.667-42.667h-426.667zM298.667 405.333c-23.564 0-42.667 19.103-42.667 42.667s19.103 42.667 42.667 42.667h426.667c23.564 0 42.667-19.103 42.667-42.667s-19.103-42.667-42.667-42.667h-426.667zM298.667 213.333c-23.564 0-42.667 19.103-42.667 42.667s19.103 42.667 42.667 42.667h170.667c23.564 0 42.667-19.103 42.667-42.667s-19.103-42.667-42.667-42.667h-170.667zM554.667 106.667c23.564 0 42.667-19.103 42.667-42.667s-19.103-42.667-42.667-42.667h-298.667c-94.257 0-170.667 76.41-170.667 170.667v512c0 94.257 76.41 170.667 170.667 170.667h512c94.257 0 170.667-76.41 170.667-170.667v-256c0-23.564-19.103-42.667-42.667-42.667s-42.667 19.103-42.667 42.667v256c0 47.128-38.205 85.333-85.333 85.333h-512c-47.128 0-85.333-38.205-85.333-85.333v-512c0-47.128 38.205-85.333 85.333-85.333h298.667z" />
<glyph unicode="&#xea00;" glyph-name="profile-circle" d="M298.667 128.663c61.018-40.844 134.394-64.663 213.333-64.663s152.316 23.82 213.333 64.663v42.003c0 47.128-38.205 85.333-85.333 85.333h-256c-47.128 0-85.333-38.205-85.333-85.333v-42.003zM216.375 202.909c15.074 78.84 84.392 138.424 167.625 138.424h256c83.234 0 152.551-59.583 167.625-138.424 55.192 66.498 88.375 151.919 88.375 245.091 0 212.077-171.923 384-384 384s-384-171.923-384-384c0-93.171 33.183-178.593 88.375-245.091zM512-21.333c-259.206 0-469.333 210.128-469.333 469.333s210.128 469.333 469.333 469.333c259.206 0 469.333-210.128 469.333-469.333s-210.128-469.333-469.333-469.333zM512 384c-94.257 0-170.667 76.41-170.667 170.667s76.41 170.667 170.667 170.667c94.257 0 170.667-76.41 170.667-170.667s-76.41-170.667-170.667-170.667zM512 469.333c47.128 0 85.333 38.205 85.333 85.333s-38.205 85.333-85.333 85.333c-47.128 0-85.333-38.205-85.333-85.333s38.205-85.333 85.333-85.333z" />
<glyph unicode="&#xea11;" glyph-name="rocket" d="M673.295 79.693c-9.721-14.259-20.069-27.215-30.989-38.728-8.137-8.579-19.469-13.397-31.293-13.304l-200.174 1.572c-11.731 0.092-22.907 5.011-30.899 13.599-10.275 11.041-20.036 23.368-29.235 36.862l-47.737-83.525c-25.666-44.908-82.877-60.506-127.785-34.84-29.177 16.676-47.184 47.706-47.184 81.313v138.971c0 45.251 17.971 88.65 49.962 120.654l80.403 80.436c-1.567 21.462-2.364 43.27-2.364 65.298 0 256.182 106.576 469.333 256 469.333s256-213.151 256-469.333c0-22.030-0.797-43.838-2.365-65.3l80.402-80.434c31.991-32.004 49.963-75.404 49.963-120.655v-138.97c0-33.607-18.006-64.637-47.184-81.313-44.908-25.666-102.119-10.067-127.785 34.84l-47.737 83.525zM647.486 220.197c22.711 65.962 35.18 144.865 35.18 227.803 0 215.101-84.45 384-170.667 384s-170.667-168.899-170.667-384c0-80.752 11.818-157.702 33.437-222.654 15.072-45.284 34.423-83.159 56.184-110.935l161.093-1.265c21.312 26.812 40.383 63.323 55.439 107.051zM512 416c-70.692 0-128 57.308-128 128s57.308 128 128 128c70.692 0 128-57.308 128-128s-57.308-128-128-128zM512 501.333c23.564 0 42.667 19.103 42.667 42.667s-19.103 42.667-42.667 42.667c-23.564 0-42.667-19.103-42.667-42.667s19.103-42.667 42.667-42.667zM272.463 276.102l-34.148-34.163c-15.995-16.002-24.981-37.701-24.981-60.327v-138.971c0-2.986 1.6-5.744 4.193-7.226 3.991-2.281 9.075-0.895 11.355 3.096l67.481 118.071-23.9 119.519zM795.119 38.511c2.281-3.991 7.365-5.377 11.355-3.096 2.593 1.482 4.193 4.239 4.193 7.226v138.97c0 22.626-8.986 44.326-24.981 60.328l-34.149 34.163-23.898-119.519 67.481-118.071z" />
<glyph unicode="&#xea17;" glyph-name="search" d="M760.034 260.305l196.148-196.148c16.662-16.662 16.662-43.677 0-60.34s-43.677-16.662-60.34 0l-196.148 196.148c-65.693-52.549-149.021-83.972-239.688-83.972-212.077 0-384 171.923-384 384s171.923 384 384 384c212.077 0 384-171.923 384-384 0-90.667-31.423-173.995-83.972-239.688v0zM460.007 201.327c164.949 0 298.667 133.718 298.667 298.667s-133.718 298.667-298.667 298.667c-164.949 0-298.667-133.718-298.667-298.667s133.718-298.667 298.667-298.667z" />
<glyph unicode="&#xea1e;" glyph-name="setting" d="M320.61 78.188l-40.456-1.367c-74.436-2.516-136.818 55.788-139.334 130.224-0.103 3.036-0.103 6.074 0 9.11l1.367 40.456c0.832 24.623-9.018 48.403-27.017 65.226l-29.574 27.64c-54.413 50.856-57.297 136.193-6.442 190.606 2.074 2.219 4.222 4.368 6.442 6.442l29.574 27.64c17.999 16.822 27.849 40.603 27.017 65.226l-1.367 40.456c-2.516 74.436 55.788 136.818 130.224 139.334 3.036 0.103 6.074 0.103 9.11 0l40.456-1.367c24.623-0.832 48.403 9.018 65.226 27.017l27.64 29.574c50.856 54.413 136.193 57.297 190.606 6.442 2.219-2.074 4.368-4.222 6.442-6.442l27.64-29.574c16.822-17.999 40.603-27.849 65.226-27.017l40.456 1.367c74.436 2.516 136.818-55.788 139.334-130.224 0.103-3.036 0.103-6.074 0-9.11l-1.367-40.456c-0.832-24.623 9.018-48.403 27.017-65.226l29.574-27.64c54.413-50.856 57.297-136.193 6.442-190.606-2.074-2.219-4.222-4.368-6.442-6.442l-29.574-27.64c-17.999-16.822-27.849-40.603-27.017-65.226l1.367-40.456c2.516-74.436-55.788-136.818-130.224-139.334-3.036-0.103-6.074-0.103-9.11 0l-40.456 1.367c-24.623 0.832-48.403-9.018-65.226-27.017l-27.64-29.574c-50.856-54.413-136.193-57.297-190.606-6.442-2.219 2.074-4.368 4.222-6.442 6.442l-27.64 29.574c-16.822 17.999-40.603 27.849-65.226 27.017zM317.728 163.472c49.245 1.664 96.806-18.036 130.451-54.035l27.64-29.574c0.762-0.815 1.551-1.604 2.366-2.366 19.982-18.676 51.32-17.616 69.996 2.366l27.64 29.574c33.645 35.998 81.206 55.699 130.451 54.035l40.456-1.367c1.115-0.038 2.231-0.038 3.345 0 27.335 0.924 48.746 23.832 47.822 51.167l-1.367 40.456c-1.664 49.245 18.036 96.806 54.035 130.451l29.574 27.64c0.815 0.762 1.604 1.551 2.366 2.366 18.676 19.982 17.616 51.32-2.366 69.996l-29.574 27.64c-35.998 33.645-55.699 81.206-54.035 130.451l1.367 40.456c0.038 1.115 0.038 2.231 0 3.345-0.924 27.335-23.832 48.746-51.167 47.822l-40.456-1.367c-49.245-1.664-96.806 18.036-130.451 54.035l-27.64 29.574c-0.762 0.815-1.551 1.604-2.366 2.366-19.982 18.676-51.32 17.616-69.996-2.366l-27.64-29.574c-33.645-35.998-81.206-55.699-130.451-54.035l-40.456 1.367c-1.115 0.038-2.231 0.038-3.345 0-27.335-0.924-48.746-23.832-47.822-51.167l1.367-40.456c1.664-49.245-18.036-96.806-54.035-130.451l-29.574-27.64c-0.815-0.762-1.604-1.551-2.366-2.366-18.676-19.982-17.616-51.32 2.366-69.996l29.574-27.64c35.998-33.645 55.699-81.206 54.035-130.451l-1.367-40.456c-0.038-1.115-0.038-2.231 0-3.345 0.924-27.335 23.832-48.746 51.167-47.822l40.456 1.367zM512 256c-106.039 0-192 85.961-192 192s85.961 192 192 192c106.039 0 192-85.961 192-192s-85.961-192-192-192zM512 341.333c58.91 0 106.667 47.756 106.667 106.667s-47.756 106.667-106.667 106.667c-58.91 0-106.667-47.756-106.667-106.667s47.756-106.667 106.667-106.667z" />
<glyph unicode="&#xea22;" glyph-name="share" d="M554.667 728.994v-451.66c0-23.564-19.103-42.667-42.667-42.667s-42.667 19.103-42.667 42.667v451.66l-138.353-138.353c-16.662-16.662-43.677-16.662-60.34 0s-16.662 43.677 0 60.34l181.019 181.019c33.325 33.325 87.355 33.325 120.68 0l181.019-181.019c16.662-16.662 16.662-43.677 0-60.34s-43.677-16.662-60.34 0l-138.353 138.353zM810.667 448c0 23.564 19.103 42.667 42.667 42.667s42.667-19.103 42.667-42.667v-256c0-94.257-76.41-170.667-170.667-170.667h-426.667c-94.257 0-170.667 76.41-170.667 170.667v256c0 23.564 19.103 42.667 42.667 42.667s42.667-19.103 42.667-42.667v-256c0-47.128 38.205-85.333 85.333-85.333h426.667c47.128 0 85.333 38.205 85.333 85.333v256z" />
<glyph unicode="&#xea34;" glyph-name="star" d="M512 111.796l-140.588-73.911c-62.572-32.896-139.964-8.839-172.86 53.733-13.099 24.917-17.62 53.456-12.861 81.201l26.85 156.547-113.738 110.867c-50.622 49.344-51.658 130.383-2.314 181.005 19.649 20.158 45.395 33.276 73.253 37.324l157.182 22.84 70.294 142.431c31.286 63.392 108.038 89.42 171.431 58.134 25.243-12.458 45.676-32.891 58.134-58.134l70.294-142.431 157.182-22.84c69.958-10.165 118.429-75.118 108.264-145.076-4.048-27.858-17.166-53.604-37.324-73.253l-113.738-110.867 26.85-156.547c11.95-69.675-34.845-135.845-104.52-147.796-27.745-4.759-56.285-0.238-81.201 12.861l-140.588 73.911zM492.145 197.766c12.43 6.535 27.279 6.535 39.709 0l160.443-84.35c8.306-4.366 17.819-5.873 27.067-4.287 23.225 3.983 38.823 26.040 34.84 49.265l-30.642 178.655c-2.374 13.841 2.215 27.963 12.271 37.766l129.801 126.524c6.719 6.55 11.092 15.132 12.441 24.418 3.388 23.319-12.769 44.97-36.088 48.359l-179.38 26.065c-13.897 2.019-25.91 10.748-32.125 23.34l-80.221 162.546c-4.153 8.414-10.964 15.225-19.378 19.378-21.131 10.429-46.715 1.753-57.144-19.378l-80.221-162.546c-6.215-12.593-18.228-21.321-32.125-23.34l-179.38-26.065c-9.286-1.349-17.868-5.722-24.418-12.441-16.448-16.874-16.103-43.887 0.771-60.335l129.801-126.524c10.056-9.802 14.645-23.925 12.271-37.766l-30.642-178.655c-1.586-9.248-0.079-18.762 4.287-27.067 10.965-20.857 36.763-28.876 57.62-17.911l160.443 84.35z" />
<glyph unicode="&#xea4b;" glyph-name="time" d="M512-21.333c-259.206 0-469.333 210.128-469.333 469.333s210.128 469.333 469.333 469.333c259.206 0 469.333-210.128 469.333-469.333s-210.128-469.333-469.333-469.333zM512 64c212.077 0 384 171.923 384 384s-171.923 384-384 384c-212.077 0-384-171.923-384-384s171.923-384 384-384zM554.667 704v-235.132l175.528-136.522c18.6-14.467 21.951-41.273 7.484-59.874s-41.273-21.951-59.874-7.484l-192 149.333c-10.393 8.083-16.472 20.513-16.472 33.679v256c0 23.564 19.103 42.667 42.667 42.667s42.667-19.103 42.667-42.667z" />
<glyph unicode="&#xea56;" glyph-name="tune-circle" d="M675.383 106.667c-17.572-49.715-64.985-85.333-120.717-85.333s-103.145 35.618-120.717 85.333h-305.95c-23.564 0-42.667 19.103-42.667 42.667s19.103 42.667 42.667 42.667h305.95c17.572 49.715 64.985 85.333 120.717 85.333s103.145-35.618 120.717-85.333h220.617c23.564 0 42.667-19.103 42.667-42.667s-19.103-42.667-42.667-42.667h-220.617zM419.383 405.333c-17.572-49.715-64.985-85.333-120.717-85.333s-103.145 35.618-120.717 85.333h-49.95c-23.564 0-42.667 19.103-42.667 42.667s19.103 42.667 42.667 42.667h49.95c17.572 49.715 64.985 85.333 120.717 85.333s103.145-35.618 120.717-85.333h476.617c23.564 0 42.667-19.103 42.667-42.667s-19.103-42.667-42.667-42.667h-476.617zM846.050 704c-17.572-49.715-64.985-85.333-120.717-85.333s-103.145 35.618-120.717 85.333h-476.617c-23.564 0-42.667 19.103-42.667 42.667s19.103 42.667 42.667 42.667h476.617c17.572 49.715 64.985 85.333 120.717 85.333s103.145-35.618 120.717-85.333h49.95c23.564 0 42.667-19.103 42.667-42.667s-19.103-42.667-42.667-42.667h-49.95zM725.333 704c23.564 0 42.667 19.103 42.667 42.667s-19.103 42.667-42.667 42.667c-23.564 0-42.667-19.103-42.667-42.667s19.103-42.667 42.667-42.667zM298.667 405.333c23.564 0 42.667 19.103 42.667 42.667s-19.103 42.667-42.667 42.667c-23.564 0-42.667-19.103-42.667-42.667s19.103-42.667 42.667-42.667zM554.667 106.667c23.564 0 42.667 19.103 42.667 42.667s-19.103 42.667-42.667 42.667c-23.564 0-42.667-19.103-42.667-42.667s19.103-42.667 42.667-42.667z" />
<glyph unicode="&#xea61;" glyph-name="user" d="M512 384c-141.385 0-256 114.615-256 256s114.615 256 256 256c141.385 0 256-114.615 256-256s-114.615-256-256-256zM512 469.333c94.257 0 170.667 76.41 170.667 170.667s-76.41 170.667-170.667 170.667c-94.257 0-170.667-76.41-170.667-170.667s76.41-170.667 170.667-170.667zM85.333 85.333v85.333c0 94.257 76.41 170.667 170.667 170.667h512c94.257 0 170.667-76.41 170.667-170.667v-85.333c0-47.128-38.205-85.333-85.333-85.333h-682.667c-47.128 0-85.333 38.205-85.333 85.333zM170.667 85.333h682.667v85.333c0 47.128-38.205 85.333-85.333 85.333h-512c-47.128 0-85.333-38.205-85.333-85.333v-85.333z" />
<glyph unicode="&#xea62;" glyph-name="user-add" d="M853.333 448v-85.333c0-23.564-19.103-42.667-42.667-42.667s-42.667 19.103-42.667 42.667v85.333h-85.333c-23.564 0-42.667 19.103-42.667 42.667s19.103 42.667 42.667 42.667h85.333v85.333c0 23.564 19.103 42.667 42.667 42.667s42.667-19.103 42.667-42.667v-85.333h85.333c23.564 0 42.667-19.103 42.667-42.667s-19.103-42.667-42.667-42.667h-85.333zM384 426.667c-117.821 0-213.333 95.513-213.333 213.333s95.513 213.333 213.333 213.333c117.821 0 213.333-95.513 213.333-213.333s-95.513-213.333-213.333-213.333zM384 512c70.692 0 128 57.308 128 128s-57.308 128-128 128c-70.692 0-128-57.308-128-128s57.308-128 128-128zM42.667 128v85.333c0 94.257 76.41 170.667 170.667 170.667h341.333c94.257 0 170.667-76.41 170.667-170.667v-85.333c0-47.128-38.205-85.333-85.333-85.333h-512c-47.128 0-85.333 38.205-85.333 85.333zM128 128h512v85.333c0 47.128-38.205 85.333-85.333 85.333h-341.333c-47.128 0-85.333-38.205-85.333-85.333v-85.333z" />
<glyph unicode="&#xea63;" glyph-name="user-check" d="M720.157 512l60.34-60.34 120.68 120.68c16.662 16.662 43.677 16.662 60.34 0s16.662-43.677 0-60.34l-150.849-150.849c-16.662-16.662-43.677-16.662-60.34 0l-90.51 90.51c-16.662 16.662-16.662 43.677 0 60.34s43.677 16.662 60.34 0zM384 426.667c-117.821 0-213.333 95.513-213.333 213.333s95.513 213.333 213.333 213.333c117.821 0 213.333-95.513 213.333-213.333s-95.513-213.333-213.333-213.333zM384 512c70.692 0 128 57.308 128 128s-57.308 128-128 128c-70.692 0-128-57.308-128-128s57.308-128 128-128zM42.667 128v85.333c0 94.257 76.41 170.667 170.667 170.667h341.333c94.257 0 170.667-76.41 170.667-170.667v-85.333c0-47.128-38.205-85.333-85.333-85.333h-512c-47.128 0-85.333 38.205-85.333 85.333zM128 128h512v85.333c0 47.128-38.205 85.333-85.333 85.333h-341.333c-47.128 0-85.333-38.205-85.333-85.333v-85.333z" />
<glyph unicode="&#xea66;" glyph-name="user-love" d="M384 426.667c-117.821 0-213.333 95.513-213.333 213.333s95.513 213.333 213.333 213.333c117.821 0 213.333-95.513 213.333-213.333s-95.513-213.333-213.333-213.333zM384 512c70.692 0 128 57.308 128 128s-57.308 128-128 128c-70.692 0-128-57.308-128-128s57.308-128 128-128zM869.543 618.667c65.411 0 111.79-50.721 111.79-115.058 0-66.779-45.185-130.255-130.278-192.986-30.109-22.196-71.163-22.196-101.272 0-85.092 62.73-130.278 126.207-130.278 192.986 0 64.337 46.379 115.058 111.79 115.058 27.912 0 49.589-8.155 69.123-23.336 19.534 15.181 41.212 23.336 69.123 23.336zM767.056 507.931c-14.62 18.342-24.389 25.402-35.759 25.402-16.494 0-26.457-10.896-26.457-29.724 0-33.742 30.101-76.028 95.58-124.3 65.48 48.272 95.58 90.557 95.58 124.3 0 18.829-9.963 29.724-26.457 29.724-11.37 0-21.139-7.061-35.759-25.402-17.081-21.429-49.647-21.429-66.728 0zM42.667 128v85.333c0 94.257 76.41 170.667 170.667 170.667h341.333c94.257 0 170.667-76.41 170.667-170.667v-85.333c0-47.128-38.205-85.333-85.333-85.333h-512c-47.128 0-85.333 38.205-85.333 85.333zM128 128h512v85.333c0 47.128-38.205 85.333-85.333 85.333h-341.333c-47.128 0-85.333-38.205-85.333-85.333v-85.333z" />
<glyph unicode="&#xea67;" glyph-name="users" d="M42.675 215.049c0.869 92.804 72.124 168.951 161.516 168.951h316.952c89.943 0 161.524-77.087 161.524-170.667v-85.333c0-23.564-9.551-44.897-24.994-60.34s-36.776-24.994-60.34-24.994h-469.333c-47.128 0-85.333 38.205-85.333 85.333v85.333c0 0.573 0.003 1.145 0.008 1.716zM362.667 426.667c-117.821 0-213.333 95.513-213.333 213.333s95.513 213.333 213.333 213.333c117.821 0 213.333-95.513 213.333-213.333s-95.513-213.333-213.333-213.333zM362.667 512c70.692 0 128 57.308 128 128s-57.308 128-128 128c-70.692 0-128-57.308-128-128s57.308-128 128-128zM677.465 427.766c-23.388 2.873-40.020 24.162-37.147 47.55s24.162 40.020 47.55 37.147c2.505-0.308 5.039-0.463 7.598-0.463 38.998 0 72.533 37.261 72.533 85.333s-33.535 85.333-72.533 85.333c-2.56 0-5.094-0.155-7.598-0.463-23.388-2.873-44.677 13.758-47.55 37.147s13.758 44.677 37.147 47.55c5.953 0.731 11.961 1.099 18.002 1.099 88.248 0 157.867-77.354 157.867-170.667s-69.618-170.667-157.867-170.667c-6.040 0-12.048 0.368-18.002 1.099zM789.34 298.667c-23.564 0-42.667 19.103-42.667 42.667s19.103 42.667 42.667 42.667h21.333c94.257 0 170.667-76.41 170.667-170.667v-85.333c0-47.128-38.205-85.333-85.333-85.333h-85.34c-23.564 0-42.667 19.103-42.667 42.667s19.103 42.667 42.667 42.667h85.34v85.333c0 47.128-38.205 85.333-85.333 85.333h-21.333zM128 128h469.333v85.333c0 47.806-34.847 85.333-76.19 85.333h-316.952c-41.343 0-76.19-37.528-76.19-85.333v-85.333z" />
<glyph unicode="&#xea68;" glyph-name="users-add" d="M917.333 426.667v-64c0-23.564-19.103-42.667-42.667-42.667s-42.667 19.103-42.667 42.667v64h-64c-23.564 0-42.667 19.103-42.667 42.667s19.103 42.667 42.667 42.667h64v64c0 23.564 19.103 42.667 42.667 42.667s42.667-19.103 42.667-42.667v-64h64c23.564 0 42.667-19.103 42.667-42.667s-19.103-42.667-42.667-42.667h-64zM277.333 426.667c-94.257 0-170.667 76.41-170.667 170.667s76.41 170.667 170.667 170.667c94.257 0 170.667-76.41 170.667-170.667s-76.41-170.667-170.667-170.667zM277.333 512c47.128 0 85.333 38.205 85.333 85.333s-38.205 85.333-85.333 85.333c-47.128 0-85.333-38.205-85.333-85.333s38.205-85.333 85.333-85.333zM528.132 427.766c-23.388 2.873-40.020 24.162-37.147 47.55s24.162 40.020 47.55 37.147c2.505-0.308 5.039-0.463 7.598-0.463 38.998 0 72.533 37.261 72.533 85.333s-33.535 85.333-72.533 85.333c-2.56 0-5.094-0.155-7.598-0.463-23.388-2.873-44.677 13.758-47.55 37.147s13.758 44.677 37.147 47.55c5.953 0.731 11.961 1.099 18.002 1.099 88.248 0 157.867-77.354 157.867-170.667s-69.618-170.667-157.867-170.667c-6.040 0-12.048 0.368-18.002 1.099zM0 170.667v64c0 82.475 66.859 149.333 149.333 149.333h256c82.475 0 149.333-66.859 149.333-149.333v-64c0-47.128-38.205-85.333-85.333-85.333h-384c-47.128 0-85.333 38.205-85.333 85.333zM85.333 170.667h384v64c0 35.346-28.654 64-64 64h-256c-35.346 0-64-28.654-64-64v-64zM618.674 298.667c-23.564 0-42.667 19.103-42.667 42.667s19.103 42.667 42.667 42.667h42.667c82.475 0 149.333-66.859 149.333-149.333v-64c0-47.128-38.205-85.333-85.333-85.333h-85.34c-23.564 0-42.667 19.103-42.667 42.667s19.103 42.667 42.667 42.667h85.34v64c0 35.346-28.654 64-64 64h-42.667z" />
<glyph unicode="&#xea69;" glyph-name="users-talk" d="M277.333 384c-94.257 0-170.667 76.41-170.667 170.667s76.41 170.667 170.667 170.667c94.257 0 170.667-76.41 170.667-170.667s-76.41-170.667-170.667-170.667zM277.333 469.333c47.128 0 85.333 38.205 85.333 85.333s-38.205 85.333-85.333 85.333c-47.128 0-85.333-38.205-85.333-85.333s38.205-85.333 85.333-85.333zM0 128v64c0 82.475 66.859 149.333 149.333 149.333h256c82.475 0 149.333-66.859 149.333-149.333v-64c0-47.128-38.205-85.333-85.333-85.333h-384c-47.128 0-85.333 38.205-85.333 85.333zM85.333 128h384v64c0 35.346-28.654 64-64 64h-256c-35.346 0-64-28.654-64-64v-64zM670.098 382.107c-8.491 3.521-16.775 7.495-24.82 11.901l-75.392-28.572c-34.385-13.031-68.050 20.633-55.018 55.018l28.572 75.392c-4.406 8.045-8.38 16.329-11.901 24.82-12.779 30.817-19.44 63.981-19.44 98.001 0 141.385 114.615 256 256 256s256-114.615 256-256c0-141.385-114.615-256-256-256-34.020 0-67.184 6.662-98.001 19.44zM630.592 485.019l-2.355-6.213 6.213 2.355c12.908 4.892 27.385 3.237 38.856-4.442 9.286-6.216 19.156-11.507 29.477-15.786 20.5-8.501 42.562-12.932 65.315-12.932 94.257 0 170.667 76.41 170.667 170.667s-76.41 170.667-170.667 170.667c-94.257 0-170.667-76.41-170.667-170.667 0-22.753 4.432-44.815 12.932-65.315 4.28-10.321 9.57-20.191 15.786-29.477 7.679-11.471 9.334-25.948 4.442-38.856z" />
<glyph unicode="&#xea75;" glyph-name="weathersunny" d="M512 149.333c-164.949 0-298.667 133.718-298.667 298.667s133.718 298.667 298.667 298.667c164.949 0 298.667-133.718 298.667-298.667s-133.718-298.667-298.667-298.667zM512 234.667c117.821 0 213.333 95.513 213.333 213.333s-95.513 213.333-213.333 213.333c-117.821 0-213.333-95.513-213.333-213.333s95.513-213.333 213.333-213.333zM554.667 832c0-23.564-19.103-42.667-42.667-42.667s-42.667 19.103-42.667 42.667v85.333c0 23.564 19.103 42.667 42.667 42.667s42.667-19.103 42.667-42.667v-85.333zM896 405.333c-23.564 0-42.667 19.103-42.667 42.667s19.103 42.667 42.667 42.667h85.333c23.564 0 42.667-19.103 42.667-42.667s-19.103-42.667-42.667-42.667h-85.333zM759.163 140.497c-16.662 16.662-16.662 43.677 0 60.34s43.677 16.662 60.34 0l64-64c16.662-16.662 16.662-43.677 0-60.34s-43.677-16.662-60.34 0l-64 64zM140.497 759.163c-16.662 16.662-16.662 43.677 0 60.34s43.677 16.662 60.34 0l64-64c16.662-16.662 16.662-43.677 0-60.34s-43.677-16.662-60.34 0l-64 64zM469.333 64c0 23.564 19.103 42.667 42.667 42.667s42.667-19.103 42.667-42.667v-85.333c0-23.564-19.103-42.667-42.667-42.667s-42.667 19.103-42.667 42.667v85.333zM204.497 200.837c16.662 16.662 43.677 16.662 60.34 0s16.662-43.677 0-60.34l-64-64c-16.662-16.662-43.677-16.662-60.34 0s-16.662 43.677 0 60.34l64 64zM823.163 819.503c16.662 16.662 43.677 16.662 60.34 0s16.662-43.677 0-60.34l-64-64c-16.662-16.662-43.677-16.662-60.34 0s-16.662 43.677 0 60.34l64 64zM128 490.667c23.564 0 42.667-19.103 42.667-42.667s-19.103-42.667-42.667-42.667h-85.333c-23.564 0-42.667 19.103-42.667 42.667s19.103 42.667 42.667 42.667h85.333z" />
<glyph unicode="&#xea77;" glyph-name="weather-night" d="M516.709 917.31c38.014-0.374 56.595-46.526 29.445-73.136-48.842-47.871-76.821-113.080-76.821-182.841 0-141.385 114.615-256 256-256 69.761 0 134.97 27.979 182.841 76.821 26.61 27.15 72.762 8.569 73.136-29.445 0.019-2.353 0.019-2.353 0.023-4.709 0-259.206-210.128-469.333-469.333-469.333s-469.333 210.128-469.333 469.333c0 259.206 210.128 469.333 469.333 469.333 2.356-0.004 2.356-0.004 4.709-0.023zM128 448c0-212.077 171.923-384 384-384 181.809 0 334.108 126.35 373.877 296.033-48.613-25.941-103.479-40.033-160.544-40.033-188.513 0-341.333 152.82-341.333 341.333 0 57.064 14.092 111.93 40.033 160.544-169.682-39.769-296.033-192.068-296.033-373.877z" />
<glyph unicode="&#xea86;" glyph-name="zoom-in" d="M760.034 260.305l196.148-196.148c16.662-16.662 16.662-43.677 0-60.34s-43.677-16.662-60.34 0l-196.148 196.148c-65.693-52.549-149.021-83.972-239.688-83.972-212.077 0-384 171.923-384 384s171.923 384 384 384c212.077 0 384-171.923 384-384 0-90.667-31.423-173.995-83.972-239.688v0zM460.007 201.327c164.949 0 298.667 133.718 298.667 298.667s-133.718 298.667-298.667 298.667c-164.949 0-298.667-133.718-298.667-298.667s133.718-298.667 298.667-298.667zM502.673 542.66h106.667c23.564 0 42.667-19.103 42.667-42.667s-19.103-42.667-42.667-42.667h-106.667v-106.667c0-23.564-19.103-42.667-42.667-42.667s-42.667 19.103-42.667 42.667v106.667h-106.667c-23.564 0-42.667 19.103-42.667 42.667s19.103 42.667 42.667 42.667h106.667v106.667c0 23.564 19.103 42.667 42.667 42.667s42.667-19.103 42.667-42.667v-106.667z" />
<glyph unicode="&#xea87;" glyph-name="zoom-out" d="M760.034 260.305l196.148-196.148c16.662-16.662 16.662-43.677 0-60.34s-43.677-16.662-60.34 0l-196.148 196.148c-65.693-52.549-149.021-83.972-239.688-83.972-212.077 0-384 171.923-384 384s171.923 384 384 384c212.077 0 384-171.923 384-384 0-90.667-31.423-173.995-83.972-239.688v0zM460.007 201.327c164.949 0 298.667 133.718 298.667 298.667s-133.718 298.667-298.667 298.667c-164.949 0-298.667-133.718-298.667-298.667s133.718-298.667 298.667-298.667zM310.673 457.327c-23.564 0-42.667 19.103-42.667 42.667s19.103 42.667 42.667 42.667h298.667c23.564 0 42.667-19.103 42.667-42.667s-19.103-42.667-42.667-42.667h-298.667z" />
<glyph unicode="&#xea90;" glyph-name="album" d="M384 440.717v135.283c0 70.692 57.308 128 128 128h149.333c70.692 0 128-57.308 128-128v-235.162c0-2.596-0.232-5.137-0.676-7.605 0.447-4.35 0.676-8.765 0.676-13.233 0-70.692-57.308-128-128-128s-128 57.308-128 128c0 70.692 57.308 128 128 128 14.96 0 29.321-2.567 42.667-7.283v135.283c0 23.564-19.103 42.667-42.667 42.667h-149.333c-23.564 0-42.667-19.103-42.667-42.667v-236.437c0-2.433-0.204-4.819-0.595-7.141 0.394-4.087 0.595-8.231 0.595-12.421 0-70.692-57.308-128-128-128s-128 57.308-128 128c0 70.692 57.308 128 128 128 14.96 0 29.321-2.567 42.667-7.283zM256 874.667h512c94.257 0 170.667-76.41 170.667-170.667v-512c0-94.257-76.41-170.667-170.667-170.667h-512c-94.257 0-170.667 76.41-170.667 170.667v512c0 94.257 76.41 170.667 170.667 170.667zM256 789.333c-47.128 0-85.333-38.205-85.333-85.333v-512c0-47.128 38.205-85.333 85.333-85.333h512c47.128 0 85.333 38.205 85.333 85.333v512c0 47.128-38.205 85.333-85.333 85.333h-512zM341.333 277.333c23.564 0 42.667 19.103 42.667 42.667s-19.103 42.667-42.667 42.667c-23.564 0-42.667-19.103-42.667-42.667s19.103-42.667 42.667-42.667zM661.333 277.333c23.564 0 42.667 19.103 42.667 42.667s-19.103 42.667-42.667 42.667c-23.564 0-42.667-19.103-42.667-42.667s19.103-42.667 42.667-42.667z" />
<glyph unicode="&#xea92;" glyph-name="alert" d="M624.156 801.949l325.012-590.93c34.068-61.942 11.472-139.773-50.47-173.841-18.899-10.394-40.117-15.844-61.686-15.844h-650.023c-70.692 0-128 57.308-128 128 0 21.568 5.45 42.787 15.844 61.686l325.012 590.93c34.068 61.942 111.899 84.538 173.841 50.47 21.268-11.698 38.772-29.202 50.47-50.47zM549.385 760.825c-3.899 7.089-9.734 12.924-16.823 16.823-20.647 11.356-46.591 3.824-57.947-16.823l-325.012-590.93c-3.465-6.3-5.281-13.372-5.281-20.562 0-23.564 19.103-42.667 42.667-42.667h650.023c7.189 0 14.262 1.817 20.562 5.281 20.647 11.356 28.179 37.3 16.823 57.947l-325.012 590.93zM469.333 565.333c0 23.564 19.103 42.667 42.667 42.667s42.667-19.103 42.667-42.667v-192c0-23.564-19.103-42.667-42.667-42.667s-42.667 19.103-42.667 42.667v192zM469.333 213.333c0 23.564 19.103 42.667 42.667 42.667s42.667-19.103 42.667-42.667c0-23.564-19.103-42.667-42.667-42.667s-42.667 19.103-42.667 42.667z" />
<glyph unicode="&#xeab3;" glyph-name="search-outline" d="M883.627 136.96l-145.067 144.64c44.951 56.854 72.107 129.579 72.107 208.646 0 0.148 0 0.295 0 0.443v-0.023c0 188.513-152.82 341.333-341.333 341.333s-341.333-152.82-341.333-341.333c0-188.513 152.82-341.333 341.333-341.333v0c0.125 0 0.272 0 0.42 0 79.067 0 151.792 27.155 209.357 72.648l-0.71-0.541 144.64-145.067c7.733-7.795 18.45-12.621 30.293-12.621s22.56 4.826 30.291 12.618l0.003 0.003c7.795 7.733 12.621 18.45 12.621 30.293s-4.826 22.56-12.618 30.291l-0.003 0.003zM213.333 490.667c0 141.385 114.615 256 256 256s256-114.615 256-256c0-141.385-114.615-256-256-256v0c-141.385 0-256 114.615-256 256v0z" />
<glyph unicode="&#xeac2;" glyph-name="smiling-face-outline" d="M512 874.667c235.648 0 426.667-191.019 426.667-426.667s-191.019-426.667-426.667-426.667-426.667 191.019-426.667 426.667 191.019 426.667 426.667 426.667zM512 789.333c-188.513 0-341.333-152.82-341.333-341.333s152.82-341.333 341.333-341.333v0c188.513 0 341.333 152.82 341.333 341.333s-152.82 341.333-341.333 341.333v0zM725.333 405.333c0-117.821-95.513-213.333-213.333-213.333s-213.333 95.513-213.333 213.333v0z" />
<glyph unicode="&#xeae9;" glyph-name="arrow-circle-right-outline" d="M725.333 448v3.84c-0.213 4.35-1.134 8.426-2.65 12.199l0.090-0.253c-1.227 3.102-2.808 5.781-4.738 8.164l0.045-0.058c-1.233 2.107-2.502 3.919-3.899 5.621l0.059-0.075-122.027 128c-7.794 8.178-18.77 13.263-30.933 13.263-23.584 0-42.703-19.119-42.703-42.703 0-11.421 4.483-21.795 11.786-29.457l-0.016 0.017 52.48-55.893h-241.493c-23.564 0-42.667-19.103-42.667-42.667s19.103-42.667 42.667-42.667v0h238.507l-55.467-55.040c-7.795-7.733-12.621-18.45-12.621-30.293s4.826-22.56 12.618-30.291l0.003-0.003c7.733-7.795 18.45-12.621 30.293-12.621s22.56 4.826 30.291 12.618l128.003 128.003c3.733 3.822 6.76 8.354 8.856 13.372l0.104 0.282c2.147 4.908 3.401 10.626 3.413 16.635v0.005zM512 874.667c-235.641 0-426.667-191.025-426.667-426.667s191.025-426.667 426.667-426.667c235.641 0 426.667 191.025 426.667 426.667v0c0 235.641-191.025 426.667-426.667 426.667v0zM512 106.667c-188.513 0-341.333 152.82-341.333 341.333s152.82 341.333 341.333 341.333c188.513 0 341.333-152.82 341.333-341.333v0c0-188.513-152.82-341.333-341.333-341.333v0z" />
<glyph unicode="&#xeaf2;" glyph-name="arrow-ios-back-outline" d="M590.080 149.333c-0.043 0-0.094 0-0.145 0-13.34 0-25.25 6.122-33.074 15.71l-0.061 0.077-206.080 256c-6.041 7.307-9.706 16.772-9.706 27.093s3.665 19.786 9.764 27.165l-0.058-0.072 213.333 256c7.891 9.447 19.676 15.413 32.853 15.413 23.594 0 42.72-19.126 42.72-42.72 0-10.416-3.728-19.961-9.922-27.374l0.055 0.068-190.72-228.693 184.32-228.693c6.15-7.342 9.885-16.89 9.885-27.31 0-23.564-19.103-42.667-42.667-42.667-0.175 0-0.35 0.001-0.525 0.003h0.027z" />
<glyph unicode="&#xeaf4;" glyph-name="arrow-ios-forward-outline" d="M426.667 149.333c-0.025 0-0.054 0-0.083 0-10.38 0-19.895 3.707-27.292 9.869l0.069-0.056c-9.459 7.882-15.435 19.666-15.435 32.846 0 10.422 3.736 19.971 9.943 27.38l-0.054-0.067 191.147 228.693-184.32 229.12c-5.944 7.274-9.546 16.665-9.546 26.897 0 13.412 6.188 25.378 15.865 33.2l0.081 0.063c7.476 6.603 17.36 10.634 28.184 10.634 13.896 0 26.241-6.643 34.032-16.928l0.077-0.107 206.080-256c6.041-7.307 9.706-16.772 9.706-27.093s-3.665-19.786-9.764-27.165l0.058 0.072-213.333-256c-7.882-9.46-19.667-15.437-32.848-15.437-0.902 0-1.798 0.028-2.687 0.083l0.122-0.006z" />
<glyph unicode="&#xeb13;" glyph-name="checkmark-circle-outline" d="M414.293 478.293c-7.753 7.753-18.463 12.548-30.293 12.548-23.661 0-42.841-19.181-42.841-42.841 0-11.83 4.795-22.541 12.548-30.293l128-128c7.709-7.648 18.326-12.374 30.047-12.374 0.087 0 0.173 0 0.26 0.001h-0.013c12.257 0.401 23.152 5.912 30.679 14.46l0.041 0.047 298.667 341.333c5.879 7.252 9.438 16.592 9.438 26.764 0 23.564-19.103 42.667-42.667 42.667-12.084 0-22.995-5.024-30.758-13.097l-0.013-0.014-265.387-307.2zM896 490.667c-23.564 0-42.667-19.103-42.667-42.667v0c0-188.513-152.82-341.333-341.333-341.333v0c-188.446 0.089-341.177 152.875-341.177 341.333 0 93.9 37.916 178.944 99.274 240.656l-0.016-0.016c61.382 62.181 146.61 100.695 240.832 100.695 0.382 0 0.765-0.001 1.147-0.002h-0.059c28.833-0.186 56.774-3.597 83.605-9.888l-2.538 0.502c3.77-1.209 8.108-1.905 12.608-1.905 23.564 0 42.667 19.103 42.667 42.667 0 20.933-15.075 38.345-34.96 41.973l-0.261 0.040c-30.326 7.447-65.178 11.793-101.019 11.946h-0.101c-234.686-1.258-424.45-191.799-424.45-426.661 0-118.226 48.085-225.221 125.765-302.494l0.018-0.018c76.45-76.484 181.997-123.879 298.613-124.16h0.053c235.641 0 426.667 191.025 426.667 426.667v0c0 23.564-19.103 42.667-42.667 42.667v0z" />
<glyph unicode="&#xeb14;" glyph-name="checkmark-outline" d="M420.693 192c-12.296 0.041-23.362 5.277-31.122 13.627l-0.024 0.027-207.36 220.587c-7.164 7.62-11.565 17.909-11.565 29.227 0 23.589 19.123 42.712 42.712 42.712 12.272 0 23.335-5.176 31.126-13.463l0.021-0.022 175.787-187.307 358.827 392.533c7.885 9.761 19.853 15.951 33.268 15.951 23.564 0 42.667-19.103 42.667-42.667 0-11.926-4.893-22.709-12.781-30.451l-0.007-0.006-389.973-426.667c-7.724-8.535-18.791-13.922-31.118-14.080h-0.028z" />
<glyph unicode="&#xeb16;" glyph-name="checkmark-square-outline" d="M853.333 455.253c-23.564 0-42.667-19.103-42.667-42.667v0-237.653c0-14.138-11.462-25.6-25.6-25.6v0h-546.133c-14.138 0-25.6 11.462-25.6 25.6v0 546.133c0 14.138 11.462 25.6 25.6 25.6v0h408.32c23.564 0 42.667 19.103 42.667 42.667s-19.103 42.667-42.667 42.667v0h-408.32c-61.169-0.241-110.692-49.764-110.933-110.91v-546.156c0.241-61.169 49.764-110.692 110.91-110.933h546.156c61.169 0.241 110.692 49.764 110.933 110.91v237.676c0 23.564-19.103 42.667-42.667 42.667v0zM457.387 490.667c-7.525 6.789-17.543 10.942-28.531 10.942-23.564 0-42.667-19.103-42.667-42.667 0-10.349 3.685-19.838 9.814-27.226l-0.057 0.070 94.72-99.413c7.749-8.118 18.639-13.179 30.711-13.227h0.009c0.074 0 0.162-0.001 0.249-0.001 11.932 0 22.721 4.898 30.464 12.794l0.007 0.007 289.28 298.667c7.5 7.708 12.125 18.247 12.125 29.867 0 23.663-19.183 42.845-42.845 42.845-12.044 0-22.927-4.969-30.711-12.969l-0.009-0.010-258.133-267.093z" />
<glyph unicode="&#xeb1c;" glyph-name="clock-outline" d="M512 874.667c-235.641 0-426.667-191.025-426.667-426.667s191.025-426.667 426.667-426.667c235.641 0 426.667 191.025 426.667 426.667v0c0 235.641-191.025 426.667-426.667 426.667v0zM512 106.667c-188.513 0-341.333 152.82-341.333 341.333s152.82 341.333 341.333 341.333c188.513 0 341.333-152.82 341.333-341.333v0c0-188.513-152.82-341.333-341.333-341.333v0zM682.667 490.667h-128v128c0 23.564-19.103 42.667-42.667 42.667s-42.667-19.103-42.667-42.667v0-170.667c0-23.564 19.103-42.667 42.667-42.667v0h170.667c23.564 0 42.667 19.103 42.667 42.667s-19.103 42.667-42.667 42.667v0z" />
<glyph unicode="&#xeb1d;" glyph-name="close-circle-outline" d="M512 874.667c-235.641 0-426.667-191.025-426.667-426.667s191.025-426.667 426.667-426.667c235.641 0 426.667 191.025 426.667 426.667v0c0 235.641-191.025 426.667-426.667 426.667v0zM512 106.667c-188.513 0-341.333 152.82-341.333 341.333s152.82 341.333 341.333 341.333c188.513 0 341.333-152.82 341.333-341.333v0c0-188.513-152.82-341.333-341.333-341.333v0zM627.627 563.627c-7.733 7.795-18.45 12.621-30.293 12.621s-22.56-4.826-30.291-12.618l-0.003-0.003-55.040-55.467-55.040 55.467c-7.753 7.753-18.463 12.548-30.293 12.548-23.661 0-42.841-19.181-42.841-42.841 0-11.83 4.795-22.541 12.548-30.293v0l55.467-55.040-55.467-55.040c-7.795-7.733-12.621-18.45-12.621-30.293s4.826-22.56 12.618-30.291l0.003-0.003c7.733-7.795 18.45-12.621 30.293-12.621s22.56 4.826 30.291 12.618l0.003 0.003 55.040 55.467 55.040-55.467c7.733-7.795 18.45-12.621 30.293-12.621s22.56 4.826 30.291 12.618l0.003 0.003c7.795 7.733 12.621 18.45 12.621 30.293s-4.826 22.56-12.618 30.291l-0.003 0.003-55.467 55.040 55.467 55.040c7.795 7.733 12.621 18.45 12.621 30.293s-4.826 22.56-12.618 30.291l-0.003 0.003z" />
<glyph unicode="&#xeb1e;" glyph-name="close-outline" d="M572.16 448l183.467 183.040c7.753 7.753 12.548 18.463 12.548 30.293 0 23.661-19.181 42.841-42.841 42.841-11.83 0-22.541-4.795-30.293-12.548v0l-183.040-183.467-183.040 183.467c-7.753 7.753-18.463 12.548-30.293 12.548-23.661 0-42.841-19.181-42.841-42.841 0-11.83 4.795-22.541 12.548-30.293v0l183.467-183.040-183.467-183.040c-7.795-7.733-12.621-18.45-12.621-30.293s4.826-22.56 12.618-30.291l0.003-0.003c7.733-7.795 18.45-12.621 30.293-12.621s22.56 4.826 30.291 12.618l0.003 0.003 183.040 183.467 183.040-183.467c7.733-7.795 18.45-12.621 30.293-12.621s22.56 4.826 30.291 12.618l0.003 0.003c7.795 7.733 12.621 18.45 12.621 30.293s-4.826 22.56-12.618 30.291l-0.003 0.003z" />
<glyph unicode="&#xeb38;" glyph-name="done-all-outline" d="M709.12 695.040c-7.203 5.743-16.438 9.215-26.484 9.215-13.646 0-25.795-6.406-33.606-16.375l-0.070-0.093-298.667-384-146.347 178.347c-7.868 10.394-20.214 17.040-34.113 17.040-23.564 0-42.667-19.103-42.667-42.667 0-10.602 3.867-20.301 10.268-27.764l-0.048 0.057 177.92-221.013c7.885-9.665 19.795-15.787 33.135-15.787 0.051 0 0.102 0 0.153 0h-0.008c0.568-0.027 1.234-0.042 1.903-0.042 13.551 0 25.627 6.317 33.442 16.168l0.068 0.088 334.080 426.667c5.36 7.055 8.587 15.987 8.587 25.672 0 14.121-6.86 26.639-17.429 34.405l-0.119 0.083zM922.453 695.040c-7.203 5.743-16.438 9.215-26.484 9.215-13.646 0-25.795-6.406-33.606-16.375l-0.070-0.093-298.667-384-26.027 32-53.76-69.12 46.933-58.453c7.885-9.665 19.795-15.787 33.135-15.787 0.051 0 0.102 0 0.153 0h-0.008c13.459 0.064 25.436 6.35 33.213 16.126l0.067 0.087 334.080 426.667c5.234 7.003 8.381 15.832 8.381 25.396 0 14.031-6.773 26.48-17.227 34.257l-0.114 0.081zM371.627 402.773l55.040 69.12-8.533 10.24c-7.842 10.773-20.411 17.695-34.596 17.695-10.016 0-19.226-3.451-26.505-9.229l0.088 0.067c-9.758-7.885-15.946-19.851-15.946-33.263 0-10.232 3.602-19.623 9.606-26.974l-0.061 0.077z" />
<glyph unicode="&#xeb6a;" glyph-name="log-in-outline" d="M810.667 789.333h-85.333c-23.564 0-42.667-19.103-42.667-42.667s19.103-42.667 42.667-42.667v0h42.667v-512h-42.667c-23.564 0-42.667-19.103-42.667-42.667s19.103-42.667 42.667-42.667v0h85.333c23.564 0 42.667 19.103 42.667 42.667v0 597.333c0 23.564-19.103 42.667-42.667 42.667v0zM503.467 644.267c-7.867 10.41-20.223 17.067-34.133 17.067-23.564 0-42.667-19.103-42.667-42.667 0-9.653 3.206-18.558 8.611-25.707l-0.078 0.107 76.8-102.4h-341.333c-23.564 0-42.667-19.103-42.667-42.667s19.103-42.667 42.667-42.667v0h345.173l-73.387-104.107c-4.965-6.884-7.942-15.49-7.942-24.792 0-14.395 7.129-27.125 18.048-34.852l0.133-0.089c6.809-4.806 15.28-7.681 24.423-7.681 0.114 0 0.228 0 0.342 0.001h-0.017c14.208 0.068 26.766 7.070 34.473 17.793l0.087 0.127 120.32 170.667c5.134 6.96 8.217 15.707 8.217 25.173s-3.083 18.213-8.3 25.291l0.083-0.117z" />
<glyph unicode="&#xeb6b;" glyph-name="log-out-outline" d="M298.667 704c23.564 0 42.667 19.103 42.667 42.667s-19.103 42.667-42.667 42.667v0h-85.333c-23.564 0-42.667-19.103-42.667-42.667v0-597.333c0-23.564 19.103-42.667 42.667-42.667v0h85.333c23.564 0 42.667 19.103 42.667 42.667s-19.103 42.667-42.667 42.667v0h-42.667v512zM888.32 472.747l-120.32 170.667c-7.828 10.937-20.491 17.98-34.8 17.98-9.179 0-17.68-2.898-24.64-7.83l0.133 0.089c-11.053-7.817-18.182-20.547-18.182-34.942 0-9.301 2.976-17.907 8.028-24.918l-0.087 0.126 73.387-103.253h-345.173c-23.564 0-42.667-19.103-42.667-42.667s19.103-42.667 42.667-42.667v0h341.333l-76.8-102.4c-5.327-7.042-8.533-15.947-8.533-25.6 0-13.911 6.657-26.267 16.959-34.056l0.107-0.078c7.042-5.327 15.947-8.533 25.6-8.533v0c13.911 0 26.267 6.657 34.056 16.959l0.078 0.107 128 170.667c5.4 7.071 8.652 16.035 8.652 25.757 0 9.214-2.921 17.746-7.887 24.72l0.089-0.131z" />
<glyph unicode="&#xeb82;" glyph-name="options-2-outline" d="M810.667 576c-55.254-0.16-102.258-35.305-120.038-84.442l-0.282-0.891h-562.347c-23.564 0-42.667-19.103-42.667-42.667s19.103-42.667 42.667-42.667v0h562.347c18.103-50.14 65.281-85.333 120.679-85.333 70.692 0 128 57.308 128 128s-57.308 128-128 128c-0.126 0-0.253 0-0.379-0.001h0.020zM810.667 405.333c-23.564 0-42.667 19.103-42.667 42.667s19.103 42.667 42.667 42.667c23.564 0 42.667-19.103 42.667-42.667v0c0-23.564-19.103-42.667-42.667-42.667v0zM128 661.333h50.347c18.382-49.611 65.296-84.33 120.32-84.33s101.938 34.719 120.032 83.444l0.288 0.886h477.013c23.564 0 42.667 19.103 42.667 42.667s-19.103 42.667-42.667 42.667v0h-477.013c-18.382 49.611-65.296 84.33-120.32 84.33s-101.938-34.719-120.032-83.444l-0.288-0.886h-50.347c-23.564 0-42.667-19.103-42.667-42.667s19.103-42.667 42.667-42.667v0zM298.667 746.667c23.564 0 42.667-19.103 42.667-42.667s-19.103-42.667-42.667-42.667c-23.564 0-42.667 19.103-42.667 42.667v0c0 23.564 19.103 42.667 42.667 42.667v0zM896 234.667h-306.347c-18.382 49.611-65.296 84.33-120.32 84.33s-101.938-34.719-120.032-83.444l-0.288-0.886h-221.013c-23.564 0-42.667-19.103-42.667-42.667s19.103-42.667 42.667-42.667v0h221.013c18.382-49.611 65.296-84.33 120.32-84.33s101.938 34.719 120.032 83.444l0.288 0.886h306.347c23.564 0 42.667 19.103 42.667 42.667s-19.103 42.667-42.667 42.667v0zM469.333 149.333c-23.564 0-42.667 19.103-42.667 42.667s19.103 42.667 42.667 42.667c23.564 0 42.667-19.103 42.667-42.667v0c0-23.564-19.103-42.667-42.667-42.667v0z" />
</font>
</defs>
</svg>
